<svg width="405" height="403" xmlns="http://www.w3.org/2000/svg" xmlns:xlink="http://www.w3.org/1999/xlink" xml:space="preserve" overflow="hidden"><g transform="translate(-1564 -620)"><path d="M1826 803 1826 809.901 1817.21 810.973 1805 815 1805 807.751 1815.77 804.223 1826 803Z" stroke="#FFFFFF" stroke-width="10.3125" stroke-miterlimit="8" fill="#FFFFFF" fill-rule="evenodd"/><path d="M1744.07 874 1751 874 1748.62 882.65 1747.66 895 1741 895 1742.05 881.37 1744.07 874Z" stroke="#FFFFFF" stroke-width="10.3125" stroke-miterlimit="8" fill="#FFFFFF" fill-rule="evenodd"/><path d="M1613 620 1750.42 620 1826 695.625 1826 803.538 1815.95 804.757 1805.39 808.276 1805.39 712.813 1729.81 712.813 1729.81 640.625 1633.61 640.625 1633.61 874.375 1744.26 874.375 1742.17 881.613 1741.09 895 1613 895 1613 620ZM1750.42 649.219 1750.42 692.188 1793.36 692.188 1750.42 649.219Z" fill="#FFFFFF" fill-rule="evenodd"/><path d="M1964 781C1964 867.849 1954.87 945.182 1882.32 987.2 1868.22 995.715 1852.07 1000.22 1835.6 1000.22L1835.03 1000.22C1829.41 1000.22 1823.81 999.702 1818.29 998.676 1796.6 994.298 1777.31 982.018 1764.17 964.221L1763.2 962.937C1739.45 990.333 1734.7 1008 1733.82 1014.99 1733.61 1016.71 1732.15 1018 1730.42 1018 1730.28 1018 1730.15 1017.99 1730.01 1017.97 1728.13 1017.74 1726.79 1016.02 1727.03 1014.14 1728.22 1004.62 1734.12 985.476 1758.91 957.262 1752.95 949.618 1748.34 941.015 1745.27 931.821 1742.09 921.866 1740.47 911.481 1740.46 901.032L1740.96 894.873 1747.82 894.873 1747.33 900.874C1747.33 910.664 1748.83 920.396 1751.8 929.726 1754.49 937.761 1758.48 945.303 1763.61 952.052 1783.26 930.801 1813.27 904.827 1859.04 874.316 1860.62 873.263 1862.76 873.689 1863.81 875.268 1864.86 876.846 1864.44 878.979 1862.86 880.032 1816.64 910.835 1786.94 936.843 1767.85 957.699L1769.65 960.059C1781.73 976.515 1799.52 987.874 1819.54 991.916 1824.65 992.862 1829.83 993.339 1835.03 993.342L1835.6 993.342C1850.82 993.343 1865.75 989.187 1878.78 981.32 1941.97 944.726 1956.25 880.877 1957.11 789.989 1935.71 795.656 1880.17 809.244 1839.51 809.244 1838.08 809.244 1836.64 809.227 1835.27 809.193L1825.85 810.359 1825.85 803.483 1835.26 802.34C1836.64 802.395 1838.06 802.395 1839.48 802.395 1889.37 802.395 1964 781 1964 781Z" stroke="#FFFFFF" stroke-width="10.3125" stroke-miterlimit="8" fill="#FFFFFF" fill-rule="evenodd"/><path d="M1805 808 1805 815.217 1800.26 816.806C1779.02 826.352 1762.21 843.901 1753.57 865.544L1751.13 874 1744 874 1747.18 862.968C1756.49 839.641 1774.63 820.739 1797.53 810.487L1805 808Z" stroke="#FFFFFF" stroke-width="10.3125" stroke-miterlimit="8" fill="#FFFFFF" fill-rule="evenodd"/><path d="M1797.15 634.798C1861.37 647.316 1913.59 693.965 1933.25 756.368" stroke="#FFFFFF" stroke-width="20.625" stroke-linecap="round" stroke-linejoin="round" stroke-miterlimit="10" fill="none" fill-rule="evenodd"/><path d="M1701.37 989.387C1606.94 960.81 1553.55 861.092 1582.13 766.66 1583.74 761.324 1585.61 756.066 1587.72 750.904" stroke="#FFFFFF" stroke-width="20.625" stroke-linecap="round" stroke-miterlimit="8" fill="none" fill-rule="evenodd"/></g></svg>