<svg width="601" height="653" xmlns="http://www.w3.org/2000/svg" xmlns:xlink="http://www.w3.org/1999/xlink" xml:space="preserve" overflow="hidden"><defs><clipPath id="clip0"><rect x="599" y="49" width="601" height="653"/></clipPath><clipPath id="clip1"><path d="M654.037 155.01 678.234 155.01 678.234 157.958 654.037 157.958M637.284 155.01 1267.55 155.01 1267.55 808.587 637.284 808.587" fill-rule="evenodd" clip-rule="evenodd"/></clipPath><clipPath id="clip2"><path d="M645.483 109.94 684.1 109.94 684.1 112.874 645.483 112.874M637.284 109.94 1267.55 109.94 1267.55 763.517 637.284 763.517" fill-rule="evenodd" clip-rule="evenodd"/></clipPath><clipPath id="clip3"><path d="M731.238 116.485 751.524 116.485 751.524 119.489 731.238 119.489M702.229 116.485 1332.5 116.485 1332.5 770.062 702.229 770.062" fill-rule="evenodd" clip-rule="evenodd"/></clipPath><clipPath id="clip4"><path d="M724.205 126.197 752.068 126.197 752.068 129.221 724.205 129.221M702.229 126.197 1332.5 126.197 1332.5 779.773 702.229 779.773" fill-rule="evenodd" clip-rule="evenodd"/></clipPath><clipPath id="clip5"><path d="M717.123 136.957 742.786 136.957 742.786 139.925 717.123 139.925M702.251 136.957 1332.52 136.957 1332.52 790.534 702.251 790.534" fill-rule="evenodd" clip-rule="evenodd"/></clipPath><clipPath id="clip6"><path d="M715.901 146.618 744.008 146.618 744.008 149.585 715.901 149.585M702.251 146.618 1332.52 146.618 1332.52 800.194 702.251 800.194" fill-rule="evenodd" clip-rule="evenodd"/></clipPath><clipPath id="clip7"><path d="M647.117 246.425 686.223 246.425 686.223 249.36 647.117 249.36M637.284 246.425 1267.55 246.425 1267.55 900.002 637.284 900.002" fill-rule="evenodd" clip-rule="evenodd"/></clipPath><clipPath id="clip8"><path d="M650.943 254.6 683.938 254.6 683.938 259.98 650.943 259.98M637.284 254.6 1267.55 254.6 1267.55 908.176 637.284 908.176" fill-rule="evenodd" clip-rule="evenodd"/></clipPath><clipPath id="clip9"><path d="M647.927 265.257 681.656 265.257 681.656 270.645 647.927 270.645M637.284 265.257 1267.55 265.257 1267.55 918.834 637.284 918.834" fill-rule="evenodd" clip-rule="evenodd"/></clipPath><clipPath id="clip10"><path d="M706.086 274.474 726.127 274.474 726.127 284.739 706.086 284.739M702.251 269.106 1332.52 269.106 1332.52 922.683 702.251 922.683" fill-rule="evenodd" clip-rule="evenodd"/></clipPath><clipPath id="clip11"><path d="M715.682 293.394 743.789 293.394 743.789 296.35 715.682 296.35M702.251 293.394 1332.52 293.394 1332.52 946.97 702.251 946.97" fill-rule="evenodd" clip-rule="evenodd"/></clipPath><clipPath id="clip12"><path d="M715.682 473.118 743.789 473.118 743.789 476.065 715.682 476.065M702.251 473.118 1332.52 473.118 1332.52 1126.69 702.251 1126.69" fill-rule="evenodd" clip-rule="evenodd"/></clipPath><clipPath id="clip13"><path d="M925.088 425.572 950.017 425.572 950.017 428.528 925.088 428.528M702.251 425.572 1332.52 425.572 1332.52 1079.15 702.251 1079.15" fill-rule="evenodd" clip-rule="evenodd"/></clipPath><clipPath id="clip14"><path d="M916.47 435.675 967.796 435.675 967.796 438.742 916.47 438.742M702.251 435.675 1332.52 435.675 1332.52 1089.25 702.251 1089.25" fill-rule="evenodd" clip-rule="evenodd"/></clipPath><clipPath id="clip15"><path d="M703.153 450.478 736.638 450.478 736.638 460.743 703.153 460.743M702.251 449.036 1332.52 449.036 1332.52 1102.61 702.251 1102.61" fill-rule="evenodd" clip-rule="evenodd"/></clipPath><clipPath id="clip16"><path d="M647.438 443.293 684.833 443.293 684.833 446.255 647.438 446.255M637.284 443.293 1267.55 443.293 1267.55 1096.87 637.284 1096.87" fill-rule="evenodd" clip-rule="evenodd"/></clipPath><clipPath id="clip17"><path d="M721.537 390.615 745.978 390.615 745.978 393.609 721.537 393.609M637.284 390.615 1267.55 390.615 1267.55 1044.19 637.284 1044.19" fill-rule="evenodd" clip-rule="evenodd"/></clipPath><clipPath id="clip18"><path d="M760.059 399.684 796.477 399.684 796.477 402.716 760.059 402.716M702.251 399.684 1332.52 399.684 1332.52 1053.26 702.251 1053.26" fill-rule="evenodd" clip-rule="evenodd"/></clipPath><clipPath id="clip19"><path d="M715.682 410.662 743.789 410.662 743.789 413.601 715.682 413.601M702.251 410.662 1332.52 410.662 1332.52 1064.24 702.251 1064.24" fill-rule="evenodd" clip-rule="evenodd"/></clipPath><clipPath id="clip20"><path d="M1167.22 200.644 1200.21 200.644 1200.21 210.908 1167.22 210.908M1165.26 199.933 1795.52 199.933 1795.52 853.51 1165.26 853.51" fill-rule="evenodd" clip-rule="evenodd"/></clipPath><clipPath id="clip21"><path d="M717.638 184.26 744.523 184.26 744.523 187.193 717.638 187.193M702.251 184.26 1332.52 184.26 1332.52 837.837 702.251 837.837" fill-rule="evenodd" clip-rule="evenodd"/></clipPath><clipPath id="clip22"><path d="M830.057 199.645 850.343 199.645 850.343 202.689 830.057 202.689M702.251 199.645 1332.52 199.645 1332.52 853.221 702.251 853.221" fill-rule="evenodd" clip-rule="evenodd"/></clipPath><clipPath id="clip23"><path d="M812.521 216.39 861.403 216.39 861.403 219.385 812.521 219.385M702.251 216.39 1332.52 216.39 1332.52 869.967 702.251 869.967" fill-rule="evenodd" clip-rule="evenodd"/></clipPath><clipPath id="clip24"><path d="M718.248 173.532 741.223 173.532 741.223 176.476 718.248 176.476M702.251 173.532 1332.52 173.532 1332.52 827.109 702.251 827.109" fill-rule="evenodd" clip-rule="evenodd"/></clipPath><clipPath id="clip25"><path d="M810.063 559.941 830.349 559.941 830.349 562.882 810.063 562.882M702.471 559.941 1332.74 559.941 1332.74 1213.52 702.471 1213.52" fill-rule="evenodd" clip-rule="evenodd"/></clipPath><clipPath id="clip26"><path d="M804.328 577.593 831.214 577.593 831.214 580.622 804.328 580.622M702.471 577.593 1332.74 577.593 1332.74 1231.17 702.471 1231.17" fill-rule="evenodd" clip-rule="evenodd"/></clipPath><clipPath id="clip27"><path d="M1105 561.964 1129.19 561.964 1129.19 572.228 1105 572.228M1098.63 561.253 1728.9 561.253 1728.9 1214.83 1098.63 1214.83" fill-rule="evenodd" clip-rule="evenodd"/></clipPath><clipPath id="clip28"><path d="M716.084 221.085 743.214 221.085 743.214 224.059 716.084 224.059M702.251 221.085 1332.52 221.085 1332.52 874.661 702.251 874.661" fill-rule="evenodd" clip-rule="evenodd"/></clipPath><clipPath id="clip29"><path d="M746.672 232.431 774.535 232.431 774.535 235.378 746.672 235.378M702.251 232.431 1332.52 232.431 1332.52 886.008 702.251 886.008" fill-rule="evenodd" clip-rule="evenodd"/></clipPath><clipPath id="clip30"><path d="M1167 341.256 1199.99 341.256 1199.99 351.52 1167 351.52M1165.04 340.545 1795.3 340.545 1795.3 994.122 1165.04 994.122" fill-rule="evenodd" clip-rule="evenodd"/></clipPath><clipPath id="clip31"><path d="M717.638 326.571 744.523 326.571 744.523 329.504 717.638 329.504M702.251 326.571 1332.52 326.571 1332.52 980.148 702.251 980.148" fill-rule="evenodd" clip-rule="evenodd"/></clipPath><clipPath id="clip32"><path d="M718.248 315.855 741.223 315.855 741.223 318.794 718.248 318.794M702.251 315.855 1332.52 315.855 1332.52 969.432 702.251 969.432" fill-rule="evenodd" clip-rule="evenodd"/></clipPath><clipPath id="clip33"><path d="M829.99 340.154 850.276 340.154 850.276 343.229 829.99 343.229M702.251 340.154 1332.52 340.154 1332.52 993.731 702.251 993.731" fill-rule="evenodd" clip-rule="evenodd"/></clipPath><clipPath id="clip34"><path d="M812.457 357.213 861.339 357.213 861.339 360.379 812.457 360.379M702.251 357.213 1332.52 357.213 1332.52 1010.79 702.251 1010.79" fill-rule="evenodd" clip-rule="evenodd"/></clipPath><clipPath id="clip35"><path d="M716.084 363.398 743.214 363.398 743.214 366.407 716.084 366.407M702.251 363.398 1332.52 363.398 1332.52 1016.97 702.251 1016.97" fill-rule="evenodd" clip-rule="evenodd"/></clipPath><clipPath id="clip36"><path d="M1167 509.673 1199.99 509.673 1199.99 519.937 1167 519.937M1165.04 508.962 1795.3 508.962 1795.3 1162.54 1165.04 1162.54" fill-rule="evenodd" clip-rule="evenodd"/></clipPath><clipPath id="clip37"><path d="M717.418 496.926 744.303 496.926 744.303 499.858 717.418 499.858M702.031 496.926 1332.3 496.926 1332.3 1150.5 702.031 1150.5" fill-rule="evenodd" clip-rule="evenodd"/></clipPath><clipPath id="clip38"><path d="M718.028 486.224 741.003 486.224 741.003 489.177 718.028 489.177M702.031 486.224 1332.3 486.224 1332.3 1139.8 702.031 1139.8" fill-rule="evenodd" clip-rule="evenodd"/></clipPath><clipPath id="clip39"><path d="M829.837 509.042 850.123 509.042 850.123 512.052 829.837 512.052M702.031 509.042 1332.3 509.042 1332.3 1162.62 702.031 1162.62" fill-rule="evenodd" clip-rule="evenodd"/></clipPath><clipPath id="clip40"><path d="M812.301 525.529 861.183 525.529 861.183 528.491 812.301 528.491M702.031 525.529 1332.3 525.529 1332.3 1179.11 702.031 1179.11" fill-rule="evenodd" clip-rule="evenodd"/></clipPath><clipPath id="clip41"><path d="M715.864 533.75 742.994 533.75 742.994 536.699 715.864 536.699M702.031 533.75 1332.3 533.75 1332.3 1187.33 702.031 1187.33" fill-rule="evenodd" clip-rule="evenodd"/></clipPath><clipPath id="clip42"><path d="M654.037 227.436 678.234 227.436 678.234 230.373 654.037 230.373M637.284 227.436 1267.55 227.436 1267.55 881.013 637.284 881.013" fill-rule="evenodd" clip-rule="evenodd"/></clipPath><clipPath id="clip43"><path d="M654.037 373.406 678.234 373.406 678.234 376.418 654.037 376.418M637.284 373.406 1267.55 373.406 1267.55 1026.98 637.284 1026.98" fill-rule="evenodd" clip-rule="evenodd"/></clipPath><clipPath id="clip44"><path d="M653.937 538.748 678.134 538.748 678.134 541.723 653.937 541.723M637.284 538.748 1267.55 538.748 1267.55 1192.32 637.284 1192.32" fill-rule="evenodd" clip-rule="evenodd"/></clipPath><clipPath id="clip45"><path d="M654.037 661.046 678.234 661.046 678.234 664.109 654.037 664.109M637.284 661.046 1267.55 661.046 1267.55 1314.62 637.284 1314.62" fill-rule="evenodd" clip-rule="evenodd"/></clipPath><clipPath id="clip46"><path d="M717.858 617.572 744.743 617.572 744.743 620.505 717.858 620.505M702.471 617.572 1332.74 617.572 1332.74 1271.15 702.471 1271.15" fill-rule="evenodd" clip-rule="evenodd"/></clipPath><clipPath id="clip47"><path d="M711.869 586.051 748.042 586.051 748.042 588.996 711.869 588.996M702.471 586.051 1332.74 586.051 1332.74 1239.63 702.471 1239.63" fill-rule="evenodd" clip-rule="evenodd"/></clipPath><clipPath id="clip48"><path d="M716.304 654.396 743.434 654.396 743.434 657.334 716.304 657.334M702.471 654.396 1332.74 654.396 1332.74 1307.97 702.471 1307.97" fill-rule="evenodd" clip-rule="evenodd"/></clipPath><clipPath id="clip49"><path d="M718.468 606.868 741.443 606.868 741.443 609.801 718.468 609.801M702.471 606.868 1332.74 606.868 1332.74 1260.44 702.471 1260.44" fill-rule="evenodd" clip-rule="evenodd"/></clipPath><clipPath id="clip50"><path d="M746.787 664.98 774.65 664.98 774.65 667.946 746.787 667.946M702.471 664.98 1332.74 664.98 1332.74 1318.56 702.471 1318.56" fill-rule="evenodd" clip-rule="evenodd"/></clipPath><clipPath id="clip51"><path d="M830.144 631.443 850.43 631.443 850.43 634.43 830.144 634.43M702.471 631.443 1332.74 631.443 1332.74 1285.02 702.471 1285.02" fill-rule="evenodd" clip-rule="evenodd"/></clipPath><clipPath id="clip52"><path d="M812.613 648.118 861.495 648.118 861.495 651.079 812.613 651.079M702.471 648.118 1332.74 648.118 1332.74 1301.69 702.471 1301.69" fill-rule="evenodd" clip-rule="evenodd"/></clipPath><clipPath id="clip53"><path d="M1167 632.254 1199.99 632.254 1199.99 642.518 1167 642.518M1165.04 631.543 1795.3 631.543 1795.3 1285.12 1165.04 1285.12" fill-rule="evenodd" clip-rule="evenodd"/></clipPath><clipPath id="clip54"><rect x="604" y="165" width="19" height="14"/></clipPath><clipPath id="clip55"><rect x="604" y="304" width="19" height="14"/></clipPath><clipPath id="clip56"><rect x="604" y="460" width="19" height="14"/></clipPath><clipPath id="clip57"><rect x="604" y="606" width="28" height="26"/></clipPath><clipPath id="clip58"><path d="M809.244 543.516 836.129 543.516 836.129 546.47 809.244 546.47M702.031 543.516 1332.3 543.516 1332.3 1197.09 702.031 1197.09" fill-rule="evenodd" clip-rule="evenodd"/></clipPath></defs><g clip-path="url(#clip0)" transform="translate(-599 -49)"><path d="M0 0 629.783 0 629.783 653 0 653Z" fill="#F2F2F2" transform="matrix(1.0001 0 0 1 584.576 49)"/><g><g><path d="M0 0 603.143 0 603.143 133.305-2.38658e-06 133.305Z" fill="#C6DCFF" fill-rule="evenodd" fill-opacity="0.4" transform="matrix(1.0001 0 0 1 598.501 553.174)"/></g></g><g><g><path d="M0 0 603.143 0 603.143 142.894-2.38658e-06 142.894Z" fill="#C6DCFF" fill-rule="evenodd" fill-opacity="0.4" transform="matrix(1.0001 0 0 1 598.501 239.685)"/></g></g><g><g><path d="M0 0 603.143 0 603.143 170.594-2.38658e-06 170.594Z" fill="#F8D3AF" fill-rule="evenodd" fill-opacity="0.4" transform="matrix(1.0001 0 0 1 598.501 382.58)"/></g></g><g><g><path d="M0 0 603.143 0 603.143 135.752-2.38658e-06 135.752Z" fill="#F8D3AF" fill-rule="evenodd" fill-opacity="0.4" transform="matrix(1.0001 0 0 1 598.527 103.933)"/></g></g><path d="M13.4412 3.66579C13.4412 5.69036 11.8 7.33159 9.77545 7.33159 7.75089 7.33159 6.10966 5.69036 6.10966 3.66579 6.10966 1.64123 7.75089 -8.68234e-16 9.77545 -8.68234e-16 11.8-1.73647e-15 13.4412 1.64123 13.4412 3.66579Z" stroke="#1A1A1A" stroke-width="0.733159" stroke-linecap="round" stroke-linejoin="round" fill="#FFFFFF" transform="matrix(1.0001 0 0 1 626.019 66.5518)"/><path d="M9.77545 7.33159 9.77545 22.288M0 9.38443 19.5509 9.38443M1.95509 29.3263 9.77545 22.288 17.5958 29.3263" stroke="#1A1A1A" stroke-width="0.733159" stroke-linecap="round" stroke-linejoin="round" fill="none" transform="matrix(1.0001 0 0 1 626.019 66.5518)"/><text fill="#1A1A1A" font-family="Noto Sans,Noto Sans_MSFontService,sans-serif" font-weight="400" font-size="18" transform="matrix(0.244411 0 0 0.244386 630.3 102)">Actor</text><path d="M0.0520022 0 0 581.637" stroke="#333333" stroke-width="0.488772" stroke-dasharray="1.95509 1.95509" transform="matrix(1.0001 0 0 1 635.565 102.648)"/><path d="M37.1467 0C38.2265 -4.34117e-16 39.1018 0.875324 39.1018 1.95509L39.1018 23.1822C39.1018 24.262 38.2265 25.1373 37.1467 25.1373L1.95509 25.1373C0.875324 25.1373 -2.17059e-16 24.262 -2.17059e-16 23.1822L-2.17059e-16 1.95509C-6.51176e-16 0.875324 0.875324 2.33065e-07 1.95509 2.33065e-07Z" stroke="#1A1A1A" stroke-width="0.488772" stroke-linecap="round" stroke-linejoin="round" fill="#FFFFFF" transform="matrix(1.0001 0 0 1 681.014 68.9615)"/><text fill="#1A1A1A" font-family="Noto Sans,Noto Sans_MSFontService,sans-serif" font-weight="400" font-size="18" transform="matrix(0.244411 0 0 0.244386 695.699 77)">Data</text><text fill="#1A1A1A" font-family="Noto Sans,Noto Sans_MSFontService,sans-serif" font-weight="400" font-size="18" transform="matrix(0.244411 0 0 0.244386 705.434 77)"> </text><text fill="#1A1A1A" font-family="Noto Sans,Noto Sans_MSFontService,sans-serif" font-weight="400" font-size="18" transform="matrix(0.244411 0 0 0.244386 686.7 83)">Management</text><text fill="#1A1A1A" font-family="Noto Sans,Noto Sans_MSFontService,sans-serif" font-weight="400" font-size="18" transform="matrix(0.244411 0 0 0.244386 714.437 83)"> </text><text fill="#1A1A1A" font-family="Noto Sans,Noto Sans_MSFontService,sans-serif" font-weight="400" font-size="18" transform="matrix(0.244411 0 0 0.244386 696.268 89)">Tool</text><path d="M37.1467 0C38.2265 -4.34117e-16 39.1018 0.875324 39.1018 1.95509L39.1018 23.1822C39.1018 24.262 38.2265 25.1373 37.1467 25.1373L1.95509 25.1373C0.875324 25.1373 -2.17059e-16 24.262 -2.17059e-16 23.1822L-2.17059e-16 1.95509C-6.51176e-16 0.875324 0.875324 2.33065e-07 1.95509 2.33065e-07Z" stroke="#1A1A1A" stroke-width="0.488772" stroke-linecap="round" stroke-linejoin="round" fill="#FFFFFF" transform="matrix(1.0001 0 0 1 746.152 68.9615)"/><text fill="#1A1A1A" font-family="Noto Sans,Noto Sans_MSFontService,sans-serif" font-weight="400" font-size="18" transform="matrix(0.244411 0 0 0.244386 754.49 80)">AAS Server</text><text fill="#1A1A1A" font-family="Noto Sans,Noto Sans_MSFontService,sans-serif" font-weight="400" font-size="18" transform="matrix(0.244411 0 0 0.244386 776.917 80)"> </text><text fill="#1A1A1A" font-family="Noto Sans,Noto Sans_MSFontService,sans-serif" font-weight="400" font-size="18" transform="matrix(0.244411 0 0 0.244386 758.382 86)">(</text><text fill="#1A1A1A" font-family="Noto Sans,Noto Sans_MSFontService,sans-serif" font-weight="400" font-size="18" transform="matrix(0.244411 0 0 0.244386 759.937 86)">Basyx</text><text fill="#1A1A1A" font-family="Noto Sans,Noto Sans_MSFontService,sans-serif" font-weight="400" font-size="18" transform="matrix(0.244411 0 0 0.244386 771.941 86)">)</text><path d="M0 0 0.456939 589.286" stroke="#333333" stroke-width="0.488772" stroke-dasharray="1.95509 1.95509" transform="matrix(1.0001 0 0 1 700.405 94.099)"/><path d="M0 0 0.629329 589.313" stroke="#333333" stroke-width="0.488772" stroke-dasharray="1.95509 1.95509" transform="matrix(1.0001 0 0 1 765.213 94.099)"/><path d="M0.122484 0 0 589.941" stroke="#333333" stroke-width="0.488772" stroke-dasharray="1.95509 1.95509" transform="matrix(1.0001 0 0 1 830.403 94.099)"/><g><g><path d="M0 0 4.3042 0 4.3042 561.231 2.13301e-07 561.231Z" stroke="#1A1A1A" stroke-width="0.977545" fill="#FFFFFF" fill-rule="evenodd" transform="matrix(1.0001 0 0 1 633.468 108.239)"/></g></g><g><g><path d="M0 0 4.3042 0 4.3042 53.0406 2.13301e-07 53.0406Z" stroke="#1A1A1A" stroke-width="0.977545" fill="#FFFFFF" fill-rule="evenodd" transform="matrix(1.0001 0 0 1 698.433 107.35)"/></g></g><g clip-path="url(#clip1)"><path d="M60.6552 0 1.77735 0.0282031" stroke="#333333" stroke-width="0.488772" stroke-dasharray="1.95509 1.95509" transform="matrix(1.0001 0 0 1 637.773 155.499)"/></g><path d="M-1.99952-1.99952 0 0-1.99952 1.99952M-1.99952 0 0 0" stroke="#333333" stroke-width="0.439895" transform="matrix(-1.0001 0.000479013 -0.000479062 -1 638.261 155.527)"/><text fill="#333333" font-family="Noto Sans,Noto Sans_MSFontService,sans-serif" font-weight="400" font-size="14" transform="matrix(0.244411 0 0 0.244386 654.672 156)">&lt;&lt;</text><text fill="#333333" font-family="Noto Sans,Noto Sans_MSFontService,sans-serif" font-weight="400" font-size="14" transform="matrix(0.244411 0 0 0.244386 658.441 156)">show AAS</text><text fill="#333333" font-family="Noto Sans,Noto Sans_MSFontService,sans-serif" font-weight="400" font-size="14" transform="matrix(0.244411 0 0 0.244386 674.063 156)">&gt;&gt;</text><g clip-path="url(#clip2)"><path d="M0 0 57.3137 0.00175205" stroke="#333333" stroke-width="0.488772" transform="matrix(1.0001 0 0 1 637.773 110.429)"/></g><path d="M-4.17678-2.08839 0 0-4.17678 2.08839Z" fill="#333333" transform="matrix(1.0001 3.05695e-05 -3.05726e-05 1 698.434 110.431)"/><text fill="#333333" font-family="Noto Sans,Noto Sans_MSFontService,sans-serif" font-weight="400" font-size="14" transform="matrix(0.244411 0 0 0.244386 646.047 111)">&lt;&lt;</text><text fill="#333333" font-family="Noto Sans,Noto Sans_MSFontService,sans-serif" font-weight="400" font-size="14" transform="matrix(0.244411 0 0 0.244386 649.816 111)">enter PLM asset nr</text><text fill="#333333" font-family="Noto Sans,Noto Sans_MSFontService,sans-serif" font-weight="400" font-size="14" transform="matrix(0.244411 0 0 0.244386 679.963 111)">&gt;&gt;</text><g><g><path d="M0 0 4.3042 0 4.3042 17.1032 2.13301e-07 17.1032Z" stroke="#1A1A1A" stroke-width="0.977545" fill="#FFFFFF" fill-rule="evenodd" transform="matrix(1.0001 0 0 1 828.252 113.567)"/></g></g><g clip-path="url(#clip3)"><path d="M0 0.103185 60.5587 0.0534018C60.5579-1.02636 61.4323-1.90241 62.5123-1.90329 63.592-1.90418 64.4681-1.02958 64.4688 0.0501874L122.178 0.00274685" stroke="#333333" stroke-width="0.488772" transform="matrix(1.0001 0 0 1 702.717 116.974)"/></g><path d="M-4.17678-2.08839 0 0-4.17678 2.08839Z" fill="#333333" transform="matrix(1.0001 -0.000822059 0.000822142 1 828.25 116.974)"/><text fill="#333333" font-family="Noto Sans,Noto Sans_MSFontService,sans-serif" font-weight="400" font-size="14" transform="matrix(0.244411 0 0 0.244386 731.894 118)">&lt;&lt;</text><text fill="#333333" font-family="Noto Sans,Noto Sans_MSFontService,sans-serif" font-weight="400" font-size="14" transform="matrix(0.244411 0 0 0.244386 735.663 118)">call API</text><text fill="#333333" font-family="Noto Sans,Noto Sans_MSFontService,sans-serif" font-weight="400" font-size="14" transform="matrix(0.244411 0 0 0.244386 747.295 118)">&gt;&gt;</text><g clip-path="url(#clip4)"><path d="M125.52 0.323822 64.4794 0.166346C64.4823-0.913416 63.6091-1.79099 62.5294-1.79378 61.4497-1.79657 60.5721-0.923504 60.5692 0.156259L1.77735 0.00458527" stroke="#333333" stroke-width="0.488772" stroke-dasharray="1.95509 1.95509" transform="matrix(1.0001 0 0 1 702.717 126.685)"/></g><path d="M-1.99952-1.99952 0 0-1.99952 1.99952M-1.99952 0 0 0" stroke="#333333" stroke-width="0.439895" transform="matrix(-1.0001 -0.00257982 0.00258008 -0.999997 703.206 126.687)"/><text fill="#333333" font-family="Noto Sans,Noto Sans_MSFontService,sans-serif" font-weight="400" font-size="14" transform="matrix(0.244411 0 0 0.244386 724.764 128)">&lt;&lt;</text><text fill="#333333" font-family="Noto Sans,Noto Sans_MSFontService,sans-serif" font-weight="400" font-size="14" transform="matrix(0.244411 0 0 0.244386 728.534 128)">return asset</text><text fill="#333333" font-family="Noto Sans,Noto Sans_MSFontService,sans-serif" font-weight="400" font-size="14" transform="matrix(0.244411 0 0 0.244386 747.973 128)">&gt;&gt;</text><path d="M37.1467 0C38.2265 -4.34117e-16 39.1018 0.875324 39.1018 1.95509L39.1018 23.1822C39.1018 24.262 38.2265 25.1373 37.1467 25.1373L1.95509 25.1373C0.875324 25.1373 -2.17059e-16 24.262 -2.17059e-16 23.1822L-2.17059e-16 1.95509C-6.51176e-16 0.875324 0.875324 2.33065e-07 1.95509 2.33065e-07Z" stroke="#1A1A1A" stroke-width="0.488772" stroke-linecap="round" stroke-linejoin="round" fill="#FFFFFF" transform="matrix(1.0001 0 0 1 811.409 68.9615)"/><text fill="#1A1A1A" font-family="Noto Sans,Noto Sans_MSFontService,sans-serif" font-weight="400" font-size="18" transform="matrix(0.244411 0 0 0.244386 821.121 80)">PLM </text><text fill="#1A1A1A" font-family="Noto Sans,Noto Sans_MSFontService,sans-serif" font-weight="400" font-size="18" transform="matrix(0.244411 0 0 0.244386 831.221 80)">(</text><text fill="#1A1A1A" font-family="Noto Sans,Noto Sans_MSFontService,sans-serif" font-weight="400" font-size="18" transform="matrix(0.244411 0 0 0.244386 832.777 80)">CIM</text><text fill="#1A1A1A" font-family="Noto Sans,Noto Sans_MSFontService,sans-serif" font-weight="400" font-size="18" transform="matrix(0.244411 0 0 0.244386 841.038 80)"> </text><text fill="#1A1A1A" font-family="Noto Sans,Noto Sans_MSFontService,sans-serif" font-weight="400" font-size="18" transform="matrix(0.244411 0 0 0.244386 820.553 86)">Database</text><text fill="#1A1A1A" font-family="Noto Sans,Noto Sans_MSFontService,sans-serif" font-weight="400" font-size="18" transform="matrix(0.244411 0 0 0.244386 840.052 86)">)</text><path d="M37.1467 0C38.2265 -4.34117e-16 39.1018 0.875324 39.1018 1.95509L39.1018 23.1822C39.1018 24.262 38.2265 25.1373 37.1467 25.1373L1.95509 25.1373C0.875324 25.1373 -2.17059e-16 24.262 -2.17059e-16 23.1822L-2.17059e-16 1.95509C-6.51176e-16 0.875324 0.875324 2.33065e-07 1.95509 2.33065e-07Z" stroke="#1A1A1A" stroke-width="0.488772" stroke-linecap="round" stroke-linejoin="round" fill="#FFFFFF" transform="matrix(1.0001 0 0 1 876.667 68.9615)"/><text fill="#1A1A1A" font-family="Noto Sans,Noto Sans_MSFontService,sans-serif" font-weight="400" font-size="18" transform="matrix(0.244411 0 0 0.244386 891.689 83)">ema</text><path d="M37.1467 0C38.2265 -4.34117e-16 39.1018 0.875324 39.1018 1.95509L39.1018 23.1822C39.1018 24.262 38.2265 25.1373 37.1467 25.1373L1.95509 25.1373C0.875324 25.1373 -2.17059e-16 24.262 -2.17059e-16 23.1822L-2.17059e-16 1.95509C-6.51176e-16 0.875324 0.875324 2.33065e-07 1.95509 2.33065e-07Z" stroke="#1A1A1A" stroke-width="0.488772" stroke-linecap="round" stroke-linejoin="round" fill="#FFFFFF" transform="matrix(1.0001 0 0 1 1008.95 68.9615)"/><text fill="#1A1A1A" font-family="Noto Sans,Noto Sans_MSFontService,sans-serif" font-weight="400" font-size="18" transform="matrix(0.244411 0 0 0.244386 1020.5 83)">OPC UA</text><path d="M37.1467 0C38.2265 -4.34117e-16 39.1018 0.875324 39.1018 1.95509L39.1018 23.1822C39.1018 24.262 38.2265 25.1373 37.1467 25.1373L1.95509 25.1373C0.875324 25.1373 -2.17059e-16 24.262 -2.17059e-16 23.1822L-2.17059e-16 1.95509C-6.51176e-16 0.875324 0.875324 2.33065e-07 1.95509 2.33065e-07Z" stroke="#1A1A1A" stroke-width="0.488772" stroke-linecap="round" stroke-linejoin="round" fill="#FFFFFF" transform="matrix(1.0001 0 0 1 942.78 68.9615)"/><text fill="#1A1A1A" font-family="Noto Sans,Noto Sans_MSFontService,sans-serif" font-weight="400" font-size="18" transform="matrix(0.244411 0 0 0.244386 950.787 83)">ERP </text><text fill="#1A1A1A" font-family="Noto Sans,Noto Sans_MSFontService,sans-serif" font-weight="400" font-size="18" transform="matrix(0.244411 0 0 0.244386 959.775 83)">(</text><text fill="#1A1A1A" font-family="Noto Sans,Noto Sans_MSFontService,sans-serif" font-weight="400" font-size="18" transform="matrix(0.244411 0 0 0.244386 961.33 83)">Odoo</text><text fill="#1A1A1A" font-family="Noto Sans,Noto Sans_MSFontService,sans-serif" font-weight="400" font-size="18" transform="matrix(0.244411 0 0 0.244386 972.795 83)">)</text><path d="M37.1467 0C38.2265 -4.34117e-16 39.1018 0.875324 39.1018 1.95509L39.1018 23.0329C39.1018 24.1127 38.2265 24.988 37.1467 24.988L1.95509 24.988C0.875324 24.988 -2.17059e-16 24.1127 -2.17059e-16 23.0329L-2.17059e-16 1.95509C-6.51176e-16 0.875324 0.875324 2.33065e-07 1.95509 2.33065e-07Z" stroke="#1A1A1A" stroke-width="0.488772" stroke-linecap="round" stroke-linejoin="round" fill="#FFFFFF" transform="matrix(1.0001 0 0 1 1144.63 69.1105)"/><text fill="#1A1A1A" font-family="Noto Sans,Noto Sans_MSFontService,sans-serif" font-weight="400" font-size="14" transform="matrix(0.244411 0 0 0.244386 1157.04 83)">openLCA</text><path d="M37.1467 0C38.2265 -4.34117e-16 39.1018 0.875324 39.1018 1.95509L39.1018 23.0329C39.1018 24.1127 38.2265 24.988 37.1467 24.988L1.95509 24.988C0.875324 24.988 -2.17059e-16 24.1127 -2.17059e-16 23.0329L-2.17059e-16 1.95509C-6.51176e-16 0.875324 0.875324 2.33065e-07 1.95509 2.33065e-07Z" stroke="#1A1A1A" stroke-width="0.488772" stroke-linecap="round" stroke-linejoin="round" fill="#FFFFFF" transform="matrix(1.0001 0 0 1 1075.86 69.1105)"/><text fill="#1A1A1A" font-family="Noto Sans,Noto Sans_MSFontService,sans-serif" font-weight="400" font-size="18" transform="matrix(0.244411 0 0 0.244386 1079.85 83)">EDC Connector</text><path d="M0 0 0.0487081 172.639" stroke="#333333" stroke-width="0.488772" stroke-dasharray="1.95509 1.95509" transform="matrix(1.0001 0 0 1 896.237 94.8126)"/><path d="M0.202639 0 0 365.375" stroke="#333333" stroke-width="0.488772" stroke-dasharray="1.95509 1.95509" transform="matrix(1.0001 0 0 1 1028.35 94.6342)"/><path d="M0.397643 0 0 587.534" stroke="#333333" stroke-width="0.488772" stroke-dasharray="1.95509 1.95509" transform="matrix(1.0001 0 0 1 961.424 94.099)"/><path d="M0 0 1.59725 588.291" stroke="#333333" stroke-width="0.488772" stroke-dasharray="1.95509 1.95509" transform="matrix(1.0001 0 0 1 1095.73 94.4876)"/><path d="M0.939137 0 0 588.15" stroke="#333333" stroke-width="0.488772" stroke-dasharray="1.95509 1.95509" transform="matrix(1.0001 0 0 1 1163.29 94.099)"/><g><g><path d="M0 0 4.3042 0 4.3042 17.1716 2.13301e-07 17.1716Z" stroke="#1A1A1A" stroke-width="0.977545" fill="#FFFFFF" fill-rule="evenodd" transform="matrix(1.0001 0 0 1 763.331 134.037)"/></g></g><g clip-path="url(#clip5)"><path d="M0 0 57.7277 0.0738892" stroke="#333333" stroke-width="0.488772" transform="matrix(1.0001 0 0 1 702.739 137.446)"/></g><path d="M-4.17678-2.08839 0 0-4.17678 2.08839Z" fill="#333333" transform="matrix(1.0001 0.00127996 -0.00128009 0.999999 763.815 137.524)"/><text fill="#333333" font-family="Noto Sans,Noto Sans_MSFontService,sans-serif" font-weight="400" font-size="14" transform="matrix(0.244411 0 0 0.244386 717.713 138)">&lt;&lt;</text><text fill="#333333" font-family="Noto Sans,Noto Sans_MSFontService,sans-serif" font-weight="400" font-size="14" transform="matrix(0.244411 0 0 0.244386 721.483 138)">create AAS</text><text fill="#333333" font-family="Noto Sans,Noto Sans_MSFontService,sans-serif" font-weight="400" font-size="14" transform="matrix(0.244411 0 0 0.244386 738.66 138)">&gt;&gt;</text><g clip-path="url(#clip6)"><path d="M0 0.0627046 57.7277 0.00343091" stroke="#333333" stroke-width="0.488772" transform="matrix(1.0001 0 0 1 702.739 147.106)"/></g><path d="M-4.17678-2.08839 0 0-4.17678 2.08839Z" fill="#333333" transform="matrix(1.0001 -0.00102678 0.00102688 0.999999 763.815 147.106)"/><text fill="#333333" font-family="Noto Sans,Noto Sans_MSFontService,sans-serif" font-weight="400" font-size="14" transform="matrix(0.244411 0 0 0.244386 716.541 148)">&lt;&lt;</text><text fill="#333333" font-family="Noto Sans,Noto Sans_MSFontService,sans-serif" font-weight="400" font-size="14" transform="matrix(0.244411 0 0 0.244386 720.311 148)">write to AAS</text><text fill="#333333" font-family="Noto Sans,Noto Sans_MSFontService,sans-serif" font-weight="400" font-size="14" transform="matrix(0.244411 0 0 0.244386 739.795 148)">&gt;&gt;</text><g><g><path d="M0 0 4.3042 0 4.3042 12.1953 2.13301e-07 12.1953Z" stroke="#1A1A1A" stroke-width="0.977545" fill="#FFFFFF" fill-rule="evenodd" transform="matrix(1.0001 0 0 1 894.067 244.223)"/></g></g><g clip-path="url(#clip7)"><path d="M0 0 60.7894 0.00569728C60.7896-1.07407 61.665-1.94931 62.7447-1.94921 63.8244-1.94911 64.6998-1.0737 64.6995 0.00606371L125.637 0.0117749C125.637-1.06799 126.512-1.94323 127.592-1.94313 128.672-1.94303 129.547-1.06763 129.547 0.0121414L190.746 0.017877C190.746-1.06189 191.622-1.93713 192.701-1.93703 193.781-1.93693 194.657-1.06152 194.656 0.0182436L252.928 0.0237047" stroke="#333333" stroke-width="0.488772" transform="matrix(1.0001 0 0 1 637.773 246.914)"/></g><path d="M-4.17678-2.08839 0 0-4.17678 2.08839Z" fill="#333333" transform="matrix(1.0001 9.37217e-05 -9.37312e-05 1 894.067 246.938)"/><text fill="#333333" font-family="Noto Sans,Noto Sans_MSFontService,sans-serif" font-weight="400" font-size="14" transform="matrix(0.244411 0 0 0.244386 647.746 248)">&lt;&lt;</text><text fill="#333333" font-family="Noto Sans,Noto Sans_MSFontService,sans-serif" font-weight="400" font-size="14" transform="matrix(0.244411 0 0 0.244386 651.515 248)">prepare simulation</text><text fill="#333333" font-family="Noto Sans,Noto Sans_MSFontService,sans-serif" font-weight="400" font-size="14" transform="matrix(0.244411 0 0 0.244386 682.094 248)">&gt;&gt;</text><g clip-path="url(#clip8)"><path d="M256.268 0.0341713 194.655 0.0259555C194.655-1.05381 193.78-1.92925 192.7-1.92939 191.62-1.92954 190.745-1.05433 190.744 0.0254343L129.555 0.0172752C129.555-1.06249 128.68-1.93793 127.6-1.93808 126.521-1.93822 125.645-1.06301 125.645 0.0167537L64.7059 0.00862803C64.7061-1.07114 63.831-1.94658 62.751-1.94672 61.6714-1.94687 60.796-1.07166 60.7957 0.00810663L3.34142 0.000445553" stroke="#333333" stroke-width="0.488772" transform="matrix(1.0001 0 0 1 637.773 255.088)"/></g><path d="M-4.17678-2.08839 0 0-4.17678 2.08839Z" fill="#333333" transform="matrix(-1.0001 -0.000133342 0.000133355 -1 637.773 255.088)"/><text fill="#333333" font-family="Noto Sans,Noto Sans_MSFontService,sans-serif" font-weight="400" font-size="14" transform="matrix(0.244411 0 0 0.244386 651.565 254)">&lt;&lt;</text><text fill="#333333" font-family="Noto Sans,Noto Sans_MSFontService,sans-serif" font-weight="400" font-size="14" transform="matrix(0.244411 0 0 0.244386 655.334 254)">export simulation</text><text fill="#333333" font-family="Noto Sans,Noto Sans_MSFontService,sans-serif" font-weight="400" font-size="14" transform="matrix(0.244411 0 0 0.244386 658.273 259)">result file</text><text fill="#333333" font-family="Noto Sans,Noto Sans_MSFontService,sans-serif" font-weight="400" font-size="14" transform="matrix(0.244411 0 0 0.244386 673.215 259)">&gt;&gt;</text><g><g><path d="M0 0 4.3042 0 4.3042 42.2605 2.13301e-07 42.2605Z" stroke="#1A1A1A" stroke-width="0.977545" fill="#FFFFFF" fill-rule="evenodd" transform="matrix(1.0001 0 0 1 698.433 262.298)"/></g></g><g clip-path="url(#clip9)"><path d="M0 0 57.3137 0.0229651" stroke="#333333" stroke-width="0.488772" transform="matrix(1.0001 0 0 1 637.773 265.746)"/></g><path d="M-4.17678-2.08839 0 0-4.17678 2.08839Z" fill="#333333" transform="matrix(1.0001 0.000400691 -0.000400731 1 698.434 265.77)"/><text fill="#333333" font-family="Noto Sans,Noto Sans_MSFontService,sans-serif" font-weight="400" font-size="14" transform="matrix(0.244411 0 0 0.244386 648.565 264)">&lt;&lt;</text><text fill="#333333" font-family="Noto Sans,Noto Sans_MSFontService,sans-serif" font-weight="400" font-size="14" transform="matrix(0.244411 0 0 0.244386 652.334 264)">upload simulation</text><text fill="#333333" font-family="Noto Sans,Noto Sans_MSFontService,sans-serif" font-weight="400" font-size="14" transform="matrix(0.244411 0 0 0.244386 655.624 269)">result file</text><text fill="#333333" font-family="Noto Sans,Noto Sans_MSFontService,sans-serif" font-weight="400" font-size="14" transform="matrix(0.244411 0 0 0.244386 670.566 269)">&gt;&gt;</text><g clip-path="url(#clip10)"><path d="M0 0 11.655 0C12.9584 0 13.6101 0.651697 13.6101 1.95509L13.6101 16.3445C13.6101 17.6479 12.9584 18.2996 11.655 18.2996L3.34142 18.2996" stroke="#333333" stroke-width="0.488772" transform="matrix(1.0001 0 0 1 702.739 269.595)"/></g><path d="M-4.17678-2.08839 0 0-4.17678 2.08839Z" fill="#333333" transform="matrix(-1.0001 1.22465e-16 -1.22477e-16 -1 702.739 287.895)"/><text fill="#333333" font-family="Noto Sans,Noto Sans_MSFontService,sans-serif" font-weight="400" font-size="14" transform="matrix(0.244411 0 0 0.244386 706.71 278)">&lt;&lt;</text><text fill="#333333" font-family="Noto Sans,Noto Sans_MSFontService,sans-serif" font-weight="400" font-size="14" transform="matrix(0.244411 0 0 0.244386 710.479 278)">read data</text><text fill="#333333" font-family="Noto Sans,Noto Sans_MSFontService,sans-serif" font-weight="400" font-size="14" transform="matrix(0.244411 0 0 0.244386 707.617 283)">from file</text><text fill="#333333" font-family="Noto Sans,Noto Sans_MSFontService,sans-serif" font-weight="400" font-size="14" transform="matrix(0.244411 0 0 0.244386 721.205 283)">&gt;&gt;</text><g><g><path d="M0 0 4.3042 0 4.3042 10.1018 2.13301e-07 10.1018Z" stroke="#1A1A1A" stroke-width="0.977545" fill="#FFFFFF" fill-rule="evenodd" transform="matrix(1.0001 0 0 1 763.353 291.514)"/></g></g><g clip-path="url(#clip11)"><path d="M0 0.0426711 57.2663 0.00235254" stroke="#333333" stroke-width="0.488772" transform="matrix(1.0001 0 0 1 702.739 293.882)"/></g><path d="M-4.17678-2.08839 0 0-4.17678 2.08839Z" fill="#333333" transform="matrix(1.0001 -0.000704051 0.000704122 1 763.353 293.882)"/><text fill="#333333" font-family="Noto Sans,Noto Sans_MSFontService,sans-serif" font-weight="400" font-size="14" transform="matrix(0.244411 0 0 0.244386 716.322 295)">&lt;&lt;</text><text fill="#333333" font-family="Noto Sans,Noto Sans_MSFontService,sans-serif" font-weight="400" font-size="14" transform="matrix(0.244411 0 0 0.244386 720.091 295)">write to AAS</text><text fill="#333333" font-family="Noto Sans,Noto Sans_MSFontService,sans-serif" font-weight="400" font-size="14" transform="matrix(0.244411 0 0 0.244386 739.576 295)">&gt;&gt;</text><g><g><path d="M0 0 4.3042 0 4.3042 17.1716 2.13301e-07 17.1716Z" stroke="#1A1A1A" stroke-width="0.977545" fill="#FFFFFF" fill-rule="evenodd" transform="matrix(1.0001 0 0 1 1026.18 421.753)"/></g></g><g><g><path d="M0 0 4.3042 0 4.3042 52.8986 2.13301e-07 52.8986Z" stroke="#1A1A1A" stroke-width="0.977545" fill="#FFFFFF" fill-rule="evenodd" transform="matrix(1.0001 0 0 1 698.433 423.077)"/></g></g><g><g><path d="M0 0 4.3042 0 4.3042 9.96072 2.13301e-07 9.96072Z" stroke="#1A1A1A" stroke-width="0.977545" fill="#FFFFFF" fill-rule="evenodd" transform="matrix(1.0001 0 0 1 763.353 471.075)"/></g></g><g clip-path="url(#clip12)"><path d="M0 0.0273043 57.2663 0.00150534" stroke="#333333" stroke-width="0.488772" transform="matrix(1.0001 0 0 1 702.739 473.606)"/></g><path d="M-4.17678-2.08839 0 0-4.17678 2.08839Z" fill="#333333" transform="matrix(1.0001 -0.000450507 0.000450553 1 763.353 473.606)"/><text fill="#333333" font-family="Noto Sans,Noto Sans_MSFontService,sans-serif" font-weight="400" font-size="14" transform="matrix(0.244411 0 0 0.244386 716.322 475)">&lt;&lt;</text><text fill="#333333" font-family="Noto Sans,Noto Sans_MSFontService,sans-serif" font-weight="400" font-size="14" transform="matrix(0.244411 0 0 0.244386 720.091 475)">write to AAS</text><text fill="#333333" font-family="Noto Sans,Noto Sans_MSFontService,sans-serif" font-weight="400" font-size="14" transform="matrix(0.244411 0 0 0.244386 739.576 475)">&gt;&gt;</text><g clip-path="url(#clip13)"><path d="M0 0.0845007 60.8685 0.0685968C60.8681-1.01117 61.7432-1.88672 62.8229-1.887 63.9028-1.88728 64.7782-1.01219 64.7787 0.067575L125.75 0.0516444C125.749-1.02812 126.625-1.90367 127.704-1.90396 128.784-1.90424 129.66-1.02914 129.66 0.0506226L256.877 0.0173831C256.877-1.06238 257.752-1.93794 258.832-1.93822 259.91-1.9385 260.787-1.06341 260.787 0.0163615L320.065 0.00087306" stroke="#333333" stroke-width="0.488772" transform="matrix(1.0001 0 0 1 702.739 426.061)"/></g><path d="M-4.17678-2.08839 0 0-4.17678 2.08839Z" fill="#333333" transform="matrix(1.0001 -0.000261284 0.00026131 1 1026.18 426.061)"/><text fill="#333333" font-family="Noto Sans,Noto Sans_MSFontService,sans-serif" font-weight="400" font-size="14" transform="matrix(0.244411 0 0 0.244386 925.742 427)">&lt;&lt;</text><text fill="#333333" font-family="Noto Sans,Noto Sans_MSFontService,sans-serif" font-weight="400" font-size="14" transform="matrix(0.244411 0 0 0.244386 929.511 427)">call server</text><text fill="#333333" font-family="Noto Sans,Noto Sans_MSFontService,sans-serif" font-weight="400" font-size="14" transform="matrix(0.244411 0 0 0.244386 945.79 427)">&gt;&gt;</text><g clip-path="url(#clip14)"><path d="M323.406 0 1.77735 0.516334" stroke="#333333" stroke-width="0.488772" stroke-dasharray="1.95509 1.95509" transform="matrix(1.0001 0 0 1 702.739 436.164)"/></g><path d="M-1.99952-1.99952 0 0-1.99952 1.99952M-1.99952 0 0 0" stroke="#333333" stroke-width="0.439895" transform="matrix(-1.0001 0.00160538 -0.00160554 -0.999999 703.228 436.682)"/><text fill="#333333" font-family="Noto Sans,Noto Sans_MSFontService,sans-serif" font-weight="400" font-size="14" transform="matrix(0.244411 0 0 0.244386 917.092 437)">&lt;&lt;</text><text fill="#333333" font-family="Noto Sans,Noto Sans_MSFontService,sans-serif" font-weight="400" font-size="14" transform="matrix(0.244411 0 0 0.244386 920.862 437)">return production log data</text><text fill="#333333" font-family="Noto Sans,Noto Sans_MSFontService,sans-serif" font-weight="400" font-size="14" transform="matrix(0.244411 0 0 0.244386 963.674 437)">&gt;&gt;</text><g clip-path="url(#clip15)"><path d="M0 0 15.4437 0C16.7471 0 17.3988 0.651697 17.3988 1.95509L17.3988 14.7115C17.3988 16.0149 16.7471 16.6666 15.4437 16.6666L3.34142 16.6666" stroke="#333333" stroke-width="0.488772" transform="matrix(1.0001 0 0 1 702.739 449.525)"/></g><path d="M-4.17678-2.08839 0 0-4.17678 2.08839Z" fill="#333333" transform="matrix(-1.0001 1.22465e-16 -1.22477e-16 -1 702.739 466.191)"/><text fill="#333333" font-family="Noto Sans,Noto Sans_MSFontService,sans-serif" font-weight="400" font-size="14" transform="matrix(0.244411 0 0 0.244386 704.21 454)">&lt;&lt;</text><text fill="#333333" font-family="Noto Sans,Noto Sans_MSFontService,sans-serif" font-weight="400" font-size="14" transform="matrix(0.244411 0 0 0.244386 707.979 454)">calculate average</text><text fill="#333333" font-family="Noto Sans,Noto Sans_MSFontService,sans-serif" font-weight="400" font-size="14" transform="matrix(0.244411 0 0 0.244386 735.958 454)"> </text><text fill="#333333" font-family="Noto Sans,Noto Sans_MSFontService,sans-serif" font-weight="400" font-size="14" transform="matrix(0.244411 0 0 0.244386 707.279 459)">from log data</text><text fill="#333333" font-family="Noto Sans,Noto Sans_MSFontService,sans-serif" font-weight="400" font-size="14" transform="matrix(0.244411 0 0 0.244386 729.121 459)">&gt;&gt;</text><g clip-path="url(#clip16)"><path d="M60.6552 0 1.77735 0.0538109" stroke="#333333" stroke-width="0.488772" stroke-dasharray="1.95509 1.95509" transform="matrix(1.0001 0 0 1 637.773 443.782)"/></g><path d="M-1.99952-1.99952 0 0-1.99952 1.99952M-1.99952 0 0 0" stroke="#333333" stroke-width="0.439895" transform="matrix(-1.0001 0.000913944 -0.000914036 -1 638.261 443.836)"/><text fill="#333333" font-family="Noto Sans,Noto Sans_MSFontService,sans-serif" font-weight="400" font-size="14" transform="matrix(0.244411 0 0 0.244386 648.073 445)">&lt;&lt;</text><text fill="#333333" font-family="Noto Sans,Noto Sans_MSFontService,sans-serif" font-weight="400" font-size="14" transform="matrix(0.244411 0 0 0.244386 651.843 445)">show live log data</text><text fill="#333333" font-family="Noto Sans,Noto Sans_MSFontService,sans-serif" font-weight="400" font-size="14" transform="matrix(0.244411 0 0 0.244386 680.659 445)">&gt;&gt;</text><g><g><path d="M0 0 4.3042 0 4.3042 17.3482 2.13301e-07 17.3482Z" stroke="#1A1A1A" stroke-width="0.977545" fill="#FFFFFF" fill-rule="evenodd" transform="matrix(1.0001 0 0 1 959.324 386.752)"/></g></g><g clip-path="url(#clip17)"><path d="M0 0.0875172 60.9013 0.0709397C60.901-1.00883 61.7762-1.88439 62.8559-1.88468 63.9356-1.88498 64.8112-1.00989 64.8115 0.0698754L125.79 0.0532769C125.79-1.02649 126.665-1.90205 127.745-1.90234 128.825-1.90264 129.7-1.02755 129.701 0.0522126L190.716 0.0356044C190.716-1.04416 191.591-1.91972 192.671-1.92002 193.751-1.92031 194.626-1.04523 194.626 0.0345401L318.179 0.000909532" stroke="#333333" stroke-width="0.488772" transform="matrix(1.0001 0 0 1 637.773 391.104)"/></g><path d="M-4.17678-2.08839 0 0-4.17678 2.08839Z" fill="#333333" transform="matrix(1.0001 -0.000272199 0.000272227 1 959.324 391.104)"/><text fill="#333333" font-family="Noto Sans,Noto Sans_MSFontService,sans-serif" font-weight="400" font-size="14" transform="matrix(0.244411 0 0 0.244386 722.168 392)">&lt;&lt;</text><text fill="#333333" font-family="Noto Sans,Noto Sans_MSFontService,sans-serif" font-weight="400" font-size="14" transform="matrix(0.244411 0 0 0.244386 725.937 392)">create order</text><g><g><path d="M0 0 4.3042 0 4.3042 21.0703 2.13301e-07 21.0703Z" stroke="#1A1A1A" stroke-width="0.977545" fill="#FFFFFF" fill-rule="evenodd" transform="matrix(1.0001 0 0 1 698.433 397.512)"/></g></g><g clip-path="url(#clip18)"><path d="M256.559 0 129.665 0.0696137C129.664-1.01015 128.789-1.88499 127.709-1.8844 126.629-1.88381 125.754-1.00801 125.755 0.0717589L64.7511 0.105225C64.7504-0.974541 63.8745-1.84938 62.7948-1.84879 61.7151-1.8482 60.8402-0.972396 60.8409 0.107371L1.77735 0.139773" stroke="#333333" stroke-width="0.488772" stroke-dasharray="1.95509 1.95509" transform="matrix(1.0001 0 0 1 702.739 400.173)"/></g><path d="M-1.99952-1.99952 0 0-1.99952 1.99952M-1.99952 0 0 0" stroke="#333333" stroke-width="0.439895" transform="matrix(-1.0001 0.000548595 -0.000548651 -1 703.228 400.314)"/><text fill="#333333" font-family="Noto Sans,Noto Sans_MSFontService,sans-serif" font-weight="400" font-size="14" transform="matrix(0.244411 0 0 0.244386 760.612 401)">&lt;&lt;</text><text fill="#333333" font-family="Noto Sans,Noto Sans_MSFontService,sans-serif" font-weight="400" font-size="14" transform="matrix(0.244411 0 0 0.244386 764.381 401)">return order data</text><text fill="#333333" font-family="Noto Sans,Noto Sans_MSFontService,sans-serif" font-weight="400" font-size="14" transform="matrix(0.244411 0 0 0.244386 792.425 401)">&gt;&gt;</text><g><g><path d="M0 0 4.3042 0 4.3042 9.96072 2.13301e-07 9.96072Z" stroke="#1A1A1A" stroke-width="0.977545" fill="#FFFFFF" fill-rule="evenodd" transform="matrix(1.0001 0 0 1 763.353 408.622)"/></g></g><g clip-path="url(#clip19)"><path d="M0 0.0117896 57.2663 0.000649984" stroke="#333333" stroke-width="0.488772" transform="matrix(1.0001 0 0 1 702.739 411.151)"/></g><path d="M-4.17678-2.08839 0 0-4.17678 2.08839Z" fill="#333333" transform="matrix(1.0001 -0.000194523 0.000194543 1 763.353 411.151)"/><text fill="#333333" font-family="Noto Sans,Noto Sans_MSFontService,sans-serif" font-weight="400" font-size="14" transform="matrix(0.244411 0 0 0.244386 716.322 412)">&lt;&lt;</text><text fill="#333333" font-family="Noto Sans,Noto Sans_MSFontService,sans-serif" font-weight="400" font-size="14" transform="matrix(0.244411 0 0 0.244386 720.091 412)">write to AAS</text><text fill="#333333" font-family="Noto Sans,Noto Sans_MSFontService,sans-serif" font-weight="400" font-size="14" transform="matrix(0.244411 0 0 0.244386 739.576 412)">&gt;&gt;</text><g><g><path d="M0 0 4.3042 0 4.3042 26.0012 2.13301e-07 26.0012Z" stroke="#1A1A1A" stroke-width="0.977545" fill="#FFFFFF" fill-rule="evenodd" transform="matrix(1.0001 0 0 1 1161.44 195.268)"/></g></g><g clip-path="url(#clip20)"><path d="M0 0 16.2601 0C17.5635 0 18.2152 0.651697 18.2152 1.95509L18.2152 11.9743C18.2152 13.2777 17.5635 13.9294 16.2601 13.9294L3.34142 13.9294" stroke="#333333" stroke-width="0.488772" transform="matrix(1.0001 0 0 1 1165.74 200.422)"/></g><path d="M-4.17678-2.08839 0 0-4.17678 2.08839Z" fill="#333333" transform="matrix(-1.0001 1.22465e-16 -1.22477e-16 -1 1165.74 214.351)"/><text fill="#333333" font-family="Noto Sans,Noto Sans_MSFontService,sans-serif" font-weight="400" font-size="14" transform="matrix(0.244411 0 0 0.244386 1174.92 205)">&lt;&lt;</text><text fill="#333333" font-family="Noto Sans,Noto Sans_MSFontService,sans-serif" font-weight="400" font-size="14" transform="matrix(0.244411 0 0 0.244386 1178.69 205)">calculate</text><text fill="#333333" font-family="Noto Sans,Noto Sans_MSFontService,sans-serif" font-weight="400" font-size="14" transform="matrix(0.244411 0 0 0.244386 1167.81 209)">sustainabilty data</text><text fill="#333333" font-family="Noto Sans,Noto Sans_MSFontService,sans-serif" font-weight="400" font-size="14" transform="matrix(0.244411 0 0 0.244386 1196.19 209)">&gt;&gt;</text><g><g><path d="M0 0 4.3042 0 4.3042 17.1032 2.13301e-07 17.1032Z" stroke="#1A1A1A" stroke-width="0.977545" fill="#FFFFFF" fill-rule="evenodd" transform="matrix(1.0001 0 0 1 763.353 171.555)"/></g></g><g clip-path="url(#clip21)"><path d="M60.6078 0 1.77735 0" stroke="#333333" stroke-width="0.488772" stroke-dasharray="1.95509 1.95509" fill="none" transform="matrix(1.0001 0 0 1 702.739 184.749)"/></g><path d="M-1.99952-1.99952 0 0-1.99952 1.99952M-1.99952 0 0 0" stroke="#333333" stroke-width="0.439895" transform="matrix(-1.0001 1.22464e-16 -1.22477e-16 -1 703.228 184.749)"/><text fill="#333333" font-family="Noto Sans,Noto Sans_MSFontService,sans-serif" font-weight="400" font-size="14" transform="matrix(0.244411 0 0 0.244386 718.3 186)">&lt;&lt;</text><text fill="#333333" font-family="Noto Sans,Noto Sans_MSFontService,sans-serif" font-weight="400" font-size="14" transform="matrix(0.244411 0 0 0.244386 722.069 186)">return data</text><text fill="#333333" font-family="Noto Sans,Noto Sans_MSFontService,sans-serif" font-weight="400" font-size="14" transform="matrix(0.244411 0 0 0.244386 740.326 186)">&gt;&gt;</text><g><g><path d="M0 0 4.3042 0 4.3042 67.7876 2.13301e-07 67.7876Z" stroke="#1A1A1A" stroke-width="0.977545" fill="#FFFFFF" fill-rule="evenodd" transform="matrix(1.0001 0 0 1 698.433 168.37)"/></g></g><g clip-path="url(#clip22)"><path d="M0 0 60.6271 0.0491908C60.6281-1.03057 61.504-1.90519 62.5839-1.90431 63.6636-1.90344 64.5382-1.0274 64.5373 0.0523634L125.797 0.102067C125.797-0.977699 126.673-1.85231 127.753-1.85144 128.833-1.85056 129.708-0.974527 129.707 0.10524L191.554 0.15542C191.555-0.924347 192.431-1.79896 193.51-1.79808 194.59-1.79721 195.465-0.921172 195.464 0.158593L257.028 0.208545C257.031-0.871222 257.906-1.74583 258.986-1.74496 260.066-1.74408 260.941-0.868048 260.939 0.211717L323.77 0.262696C323.773-0.817069 324.648-1.69168 325.728-1.69081 326.808-1.68993 327.683-0.813897 327.68 0.26587L391.284 0.317475C391.287-0.76229 392.162-1.6369 393.242-1.63603 394.322-1.63515 395.197-0.759117 395.195 0.320647L455.311 0.369424" stroke="#333333" stroke-width="0.488772" transform="matrix(1.0001 0 0 1 702.739 200.133)"/></g><path d="M-4.17678-2.08839 0 0-4.17678 2.08839Z" fill="#333333" transform="matrix(1.0001 0.000811366 -0.000811448 1 1161.44 200.505)"/><text fill="#333333" font-family="Noto Sans,Noto Sans_MSFontService,sans-serif" font-weight="400" font-size="14" transform="matrix(0.244411 0 0 0.244386 830.713 201)">&lt;&lt;</text><text fill="#333333" font-family="Noto Sans,Noto Sans_MSFontService,sans-serif" font-weight="400" font-size="14" transform="matrix(0.244411 0 0 0.244386 834.482 201)">call API</text><text fill="#333333" font-family="Noto Sans,Noto Sans_MSFontService,sans-serif" font-weight="400" font-size="14" transform="matrix(0.244411 0 0 0.244386 846.114 201)">&gt;&gt;</text><g clip-path="url(#clip23)"><path d="M458.654 0.212277 395.241 0.182927C395.241-0.896839 394.366-1.77257 393.286-1.77307 392.206-1.77357 391.331-0.898647 391.331 0.181118L327.673 0.151655C327.673-0.92811 326.798-1.80384 325.718-1.80434 324.638-1.80484 323.763-0.929921 323.763 0.149845L260.929 0.120764C260.929-0.959001 260.054-1.83473 258.974-1.83523 257.893-1.83573 257.019-0.960812 257.019 0.118955L195.469 0.0904679C195.469-0.989297 194.594-1.86503 193.515-1.86553 192.435-1.86603 191.559-0.991108 191.558 0.0886582L129.703 0.0600301C129.704-1.01974 128.829-1.89546 127.749-1.89597 126.669-1.89646 125.794-1.02155 125.793 0.0582201L64.5551 0.0298777C64.5556-1.04989 63.6807-1.92562 62.601-1.92612 61.5213-1.92662 60.6454-1.0517 60.6449 0.028068L1.77735 0.000822604" stroke="#333333" stroke-width="0.488772" stroke-dasharray="1.95509 1.95509" transform="matrix(1.0001 0 0 1 702.739 216.879)"/></g><path d="M-1.99952-1.99952 0 0-1.99952 1.99952M-1.99952 0 0 0" stroke="#333333" stroke-width="0.439895" transform="matrix(-1.0001 -0.000462825 0.000462872 -1 703.228 216.879)"/><text fill="#333333" font-family="Noto Sans,Noto Sans_MSFontService,sans-serif" font-weight="400" font-size="14" transform="matrix(0.244411 0 0 0.244386 813.137 218)">&lt;&lt;</text><text fill="#333333" font-family="Noto Sans,Noto Sans_MSFontService,sans-serif" font-weight="400" font-size="14" transform="matrix(0.244411 0 0 0.244386 816.907 218)">return sustainability data</text><text fill="#333333" font-family="Noto Sans,Noto Sans_MSFontService,sans-serif" font-weight="400" font-size="14" transform="matrix(0.244411 0 0 0.244386 857.248 218)">&gt;&gt;</text><g clip-path="url(#clip24)"><path d="M0 0 57.2663 0.0245637" stroke="#333333" stroke-width="0.488772" transform="matrix(1.0001 0 0 1 702.739 174.021)"/></g><path d="M-4.17678-2.08839 0 0-4.17678 2.08839Z" fill="#333333" transform="matrix(1.0001 0.000428937 -0.00042898 1 763.353 174.047)"/><text fill="#333333" font-family="Noto Sans,Noto Sans_MSFontService,sans-serif" font-weight="400" font-size="14" transform="matrix(0.244411 0 0 0.244386 718.846 175)">&lt;&lt;</text><text fill="#333333" font-family="Noto Sans,Noto Sans_MSFontService,sans-serif" font-weight="400" font-size="14" transform="matrix(0.244411 0 0 0.244386 722.615 175)">read AAS</text><text fill="#333333" font-family="Noto Sans,Noto Sans_MSFontService,sans-serif" font-weight="400" font-size="14" transform="matrix(0.244411 0 0 0.244386 737.09 175)">&gt;&gt;</text><g><g><path d="M0 0 4.3042 0 4.3042 26.0012 2.13301e-07 26.0012Z" stroke="#1A1A1A" stroke-width="0.977545" fill="#FFFFFF" fill-rule="evenodd" transform="matrix(1.0001 0 0 1 1094.82 556.588)"/></g></g><g><g><path d="M0 0 4.3042 0 4.3042 39.3787 2.13301e-07 39.3787Z" stroke="#1A1A1A" stroke-width="0.977545" fill="#FFFFFF" fill-rule="evenodd" transform="matrix(1.0001 0 0 1 698.653 553.941)"/></g></g><g clip-path="url(#clip25)"><path d="M0 0.0120693 60.7923 0.0101967C60.7923-1.06957 61.6677-1.94492 62.7474-1.94495 63.8271-1.94499 64.7025-1.06969 64.7025 0.0100763L125.502 0.00820343C125.502-1.07156 126.377-1.94691 127.457-1.94695 128.537-1.94698 129.412-1.07168 129.412 0.00808293L256.566 0.00416625C256.566-1.0756 257.441-1.95095 258.522-1.95098 259.602-1.95102 260.477-1.07572 260.477 0.00404577L388.476 0.000102927" stroke="#333333" stroke-width="0.488772" transform="matrix(1.0001 0 0 1 702.959 560.43)"/></g><path d="M-4.17678-2.08839 0 0-4.17678 2.08839Z" fill="#333333" transform="matrix(1.0001 -3.08033e-05 3.08064e-05 1 1094.82 560.43)"/><text fill="#333333" font-family="Noto Sans,Noto Sans_MSFontService,sans-serif" font-weight="400" font-size="14" transform="matrix(0.244411 0 0 0.244386 810.719 561)">&lt;&lt;</text><text fill="#333333" font-family="Noto Sans,Noto Sans_MSFontService,sans-serif" font-weight="400" font-size="14" transform="matrix(0.244411 0 0 0.244386 814.488 561)">call API</text><text fill="#333333" font-family="Noto Sans,Noto Sans_MSFontService,sans-serif" font-weight="400" font-size="14" transform="matrix(0.244411 0 0 0.244386 826.12 561)">&gt;&gt;</text><g clip-path="url(#clip26)"><path d="M391.82 0.330635 260.464 0.219791C260.464-0.859976 259.589-1.73604 258.509-1.73695 257.432-1.73786 256.554-0.863275 256.554 0.216492L129.409 0.109201C129.41-0.970565 128.535-1.84663 127.455-1.84754 126.376-1.84845 125.499-0.973864 125.498 0.105902L64.7213 0.0546149C64.7223-1.02515 63.8476-1.90121 62.7679-1.90212 61.6882-1.90304 60.8121-1.02845 60.8111 0.0513152L1.77735 0.00149981" stroke="#333333" stroke-width="0.488772" stroke-dasharray="1.95509 1.95509" transform="matrix(1.0001 0 0 1 702.959 578.082)"/></g><path d="M-1.99952-1.99952 0 0-1.99952 1.99952M-1.99952 0 0 0" stroke="#333333" stroke-width="0.439895" transform="matrix(-1.0001 -0.000843845 0.000843931 -1 703.448 578.082)"/><text fill="#333333" font-family="Noto Sans,Noto Sans_MSFontService,sans-serif" font-weight="400" font-size="14" transform="matrix(0.244411 0 0 0.244386 804.99 579)">&lt;&lt;</text><text fill="#333333" font-family="Noto Sans,Noto Sans_MSFontService,sans-serif" font-weight="400" font-size="14" transform="matrix(0.244411 0 0 0.244386 808.76 579)">return data</text><text fill="#333333" font-family="Noto Sans,Noto Sans_MSFontService,sans-serif" font-weight="400" font-size="14" transform="matrix(0.244411 0 0 0.244386 827.016 579)">&gt;&gt;</text><g clip-path="url(#clip27)"><path d="M0 0 16.2601 0C17.5635 0 18.2152 0.651697 18.2152 1.95509L18.2152 11.9743C18.2152 13.2777 17.5635 13.9294 16.2601 13.9294L3.34142 13.9294" stroke="#333333" stroke-width="0.488772" transform="matrix(1.0001 0 0 1 1099.12 561.742)"/></g><path d="M-4.17678-2.08839 0 0-4.17678 2.08839Z" fill="#333333" transform="matrix(-1.0001 1.22465e-16 -1.22477e-16 -1 1099.12 575.671)"/><text fill="#333333" font-family="Noto Sans,Noto Sans_MSFontService,sans-serif" font-weight="400" font-size="14" transform="matrix(0.244411 0 0 0.244386 1106.38 566)">&lt;&lt;</text><text fill="#333333" font-family="Noto Sans,Noto Sans_MSFontService,sans-serif" font-weight="400" font-size="14" transform="matrix(0.244411 0 0 0.244386 1110.15 566)">offer data </text><text fill="#333333" font-family="Noto Sans,Noto Sans_MSFontService,sans-serif" font-weight="400" font-size="14" transform="matrix(0.244411 0 0 0.244386 1126.88 566)">/</text><text fill="#333333" font-family="Noto Sans,Noto Sans_MSFontService,sans-serif" font-weight="400" font-size="14" transform="matrix(0.244411 0 0 0.244386 1128.35 566)"> </text><text fill="#333333" font-family="Noto Sans,Noto Sans_MSFontService,sans-serif" font-weight="400" font-size="14" transform="matrix(0.244411 0 0 0.244386 1105.65 571)">receive data</text><text fill="#333333" font-family="Noto Sans,Noto Sans_MSFontService,sans-serif" font-weight="400" font-size="14" transform="matrix(0.244411 0 0 0.244386 1125.15 571)">&gt;&gt;</text><g clip-path="url(#clip28)"><path d="M0 0.076129 57.0842 0.0042098" stroke="#333333" stroke-width="0.488772" transform="matrix(1.0001 0 0 1 702.739 221.573)"/></g><path d="M-4.17678-2.08839 0 0-4.17678 2.08839Z" fill="#333333" transform="matrix(1.0001 -0.00125988 0.00126001 0.999999 763.171 221.573)"/><text fill="#333333" font-family="Noto Sans,Noto Sans_MSFontService,sans-serif" font-weight="400" font-size="14" transform="matrix(0.244411 0 0 0.244386 716.704 223)">&lt;&lt;</text><text fill="#333333" font-family="Noto Sans,Noto Sans_MSFontService,sans-serif" font-weight="400" font-size="14" transform="matrix(0.244411 0 0 0.244386 720.473 223)">update AAS</text><text fill="#333333" font-family="Noto Sans,Noto Sans_MSFontService,sans-serif" font-weight="400" font-size="14" transform="matrix(0.244411 0 0 0.244386 739.024 223)">&gt;&gt;</text><g><g><path d="M0 0 4.3042 0 4.3042 9.96072 2.13301e-07 9.96072Z" stroke="#1A1A1A" stroke-width="0.977545" fill="#FFFFFF" fill-rule="evenodd" transform="matrix(1.0001 0 0 1 763.353 219.567)"/></g></g><g><g><path d="M0 0 4.3042 0 4.3042 9.96072 2.13301e-07 9.96072Z" stroke="#1A1A1A" stroke-width="0.977545" fill="#FFFFFF" fill-rule="evenodd" transform="matrix(1.0001 0 0 1 828.252 231.092)"/></g></g><g clip-path="url(#clip29)"><path d="M0 0 122.158 0.0289972" stroke="#333333" stroke-width="0.488772" transform="matrix(1.0001 0 0 1 702.739 232.92)"/></g><path d="M-4.17678-2.08839 0 0-4.17678 2.08839Z" fill="#333333" transform="matrix(1.0001 0.000237374 -0.000237398 1 828.252 232.95)"/><text fill="#333333" font-family="Noto Sans,Noto Sans_MSFontService,sans-serif" font-weight="400" font-size="14" transform="matrix(0.244411 0 0 0.244386 747.301 234)">&lt;&lt;</text><text fill="#333333" font-family="Noto Sans,Noto Sans_MSFontService,sans-serif" font-weight="400" font-size="14" transform="matrix(0.244411 0 0 0.244386 751.07 234)">update PLM</text><text fill="#333333" font-family="Noto Sans,Noto Sans_MSFontService,sans-serif" font-weight="400" font-size="14" transform="matrix(0.244411 0 0 0.244386 770.336 234)">&gt;&gt;</text><g><g><path d="M0 0 4.3042 0 4.3042 26.0012 2.13301e-07 26.0012Z" stroke="#1A1A1A" stroke-width="0.977545" fill="#FFFFFF" fill-rule="evenodd" transform="matrix(1.0001 0 0 1 1161.22 335.878)"/></g></g><g clip-path="url(#clip30)"><path d="M0 0 16.2601 0C17.5635 0 18.2152 0.651697 18.2152 1.95509L18.2152 11.9743C18.2152 13.2777 17.5635 13.9294 16.2601 13.9294L3.34142 13.9294" stroke="#333333" stroke-width="0.488772" transform="matrix(1.0001 0 0 1 1165.52 341.034)"/></g><path d="M-4.17678-2.08839 0 0-4.17678 2.08839Z" fill="#333333" transform="matrix(-1.0001 1.22465e-16 -1.22477e-16 -1 1165.52 354.964)"/><text fill="#333333" font-family="Noto Sans,Noto Sans_MSFontService,sans-serif" font-weight="400" font-size="14" transform="matrix(0.244411 0 0 0.244386 1174.7 345)">&lt;&lt;</text><text fill="#333333" font-family="Noto Sans,Noto Sans_MSFontService,sans-serif" font-weight="400" font-size="14" transform="matrix(0.244411 0 0 0.244386 1178.47 345)">calculate</text><text fill="#333333" font-family="Noto Sans,Noto Sans_MSFontService,sans-serif" font-weight="400" font-size="14" transform="matrix(0.244411 0 0 0.244386 1167.59 350)">sustainabilty data</text><text fill="#333333" font-family="Noto Sans,Noto Sans_MSFontService,sans-serif" font-weight="400" font-size="14" transform="matrix(0.244411 0 0 0.244386 1195.97 350)">&gt;&gt;</text><g><g><path d="M0 0 4.3042 0 4.3042 17.1032 2.13301e-07 17.1032Z" stroke="#1A1A1A" stroke-width="0.977545" fill="#FFFFFF" fill-rule="evenodd" transform="matrix(1.0001 0 0 1 763.353 313.868)"/></g></g><g clip-path="url(#clip31)"><path d="M60.6078 0 1.77735 0" stroke="#333333" stroke-width="0.488772" stroke-dasharray="1.95509 1.95509" fill="none" transform="matrix(1.0001 0 0 1 702.739 327.06)"/></g><path d="M-1.99952-1.99952 0 0-1.99952 1.99952M-1.99952 0 0 0" stroke="#333333" stroke-width="0.439895" transform="matrix(-1.0001 1.22464e-16 -1.22477e-16 -1 703.228 327.06)"/><text fill="#333333" font-family="Noto Sans,Noto Sans_MSFontService,sans-serif" font-weight="400" font-size="14" transform="matrix(0.244411 0 0 0.244386 718.3 328)">&lt;&lt;</text><text fill="#333333" font-family="Noto Sans,Noto Sans_MSFontService,sans-serif" font-weight="400" font-size="14" transform="matrix(0.244411 0 0 0.244386 722.069 328)">return data</text><text fill="#333333" font-family="Noto Sans,Noto Sans_MSFontService,sans-serif" font-weight="400" font-size="14" transform="matrix(0.244411 0 0 0.244386 740.326 328)">&gt;&gt;</text><g><g><path d="M0 0 4.3042 0 4.3042 67.7876 2.13301e-07 67.7876Z" stroke="#1A1A1A" stroke-width="0.977545" fill="#FFFFFF" fill-rule="evenodd" transform="matrix(1.0001 0 0 1 698.433 310.684)"/></g></g><g clip-path="url(#clip32)"><path d="M0 0 57.2663 0.0139817" stroke="#333333" stroke-width="0.488772" transform="matrix(1.0001 0 0 1 702.739 316.344)"/></g><path d="M-4.17678-2.08839 0 0-4.17678 2.08839Z" fill="#333333" transform="matrix(1.0001 0.000244152 -0.000244177 1 763.353 316.359)"/><text fill="#333333" font-family="Noto Sans,Noto Sans_MSFontService,sans-serif" font-weight="400" font-size="14" transform="matrix(0.244411 0 0 0.244386 718.846 317)">&lt;&lt;</text><text fill="#333333" font-family="Noto Sans,Noto Sans_MSFontService,sans-serif" font-weight="400" font-size="14" transform="matrix(0.244411 0 0 0.244386 722.615 317)">read AAS</text><text fill="#333333" font-family="Noto Sans,Noto Sans_MSFontService,sans-serif" font-weight="400" font-size="14" transform="matrix(0.244411 0 0 0.244386 737.09 317)">&gt;&gt;</text><g clip-path="url(#clip33)"><path d="M0 0 60.7771 0.0626633C60.7784-1.0171 61.6545-1.89152 62.7344-1.89041 63.8141-1.8893 64.6885-1.01307 64.6873 0.066695L125.767 0.129671C125.768-0.950095 126.645-1.82452 127.725-1.8234 128.804-1.82229 129.679-0.946063 129.677 0.133702L256.933 0.264907C256.935-0.814857 257.81-1.68928 258.891-1.68816 259.971-1.68705 260.846-0.810827 260.843 0.26894L323.692 0.333739C323.694-0.746028 324.569-1.62045 325.65-1.61933 326.73-1.61822 327.605-0.741996 327.602 0.337771L391.668 0.403821C391.668-0.675943 392.545-1.55036 393.623-1.54925 394.703-1.54814 395.578-0.671911 395.578 0.407854L455.091 0.469217" stroke="#333333" stroke-width="0.488772" transform="matrix(1.0001 0 0 1 702.739 340.643)"/></g><path d="M-4.17678-2.08839 0 0-4.17678 2.08839Z" fill="#333333" transform="matrix(1.0001 0.00103103 -0.00103113 0.999999 1161.22 341.116)"/><text fill="#333333" font-family="Noto Sans,Noto Sans_MSFontService,sans-serif" font-weight="400" font-size="14" transform="matrix(0.244411 0 0 0.244386 830.646 342)">&lt;&lt;</text><text fill="#333333" font-family="Noto Sans,Noto Sans_MSFontService,sans-serif" font-weight="400" font-size="14" transform="matrix(0.244411 0 0 0.244386 834.416 342)">call API</text><text fill="#333333" font-family="Noto Sans,Noto Sans_MSFontService,sans-serif" font-weight="400" font-size="14" transform="matrix(0.244411 0 0 0.244386 846.047 342)">&gt;&gt;</text><g clip-path="url(#clip34)"><path d="M458.434 0 395.622 0.0453581C395.622-1.03441 394.745-1.9091 393.665-1.90832 392.587-1.90754 391.712-1.03158 391.712 0.0481817L327.595 0.0944836C327.592-0.985282 326.717-1.85997 325.637-1.85919 324.557-1.85841 323.682-0.98246 323.685 0.0973075L260.833 0.142694C260.831-0.937072 259.956-1.81176 258.876-1.81098 257.796-1.8102 256.921-0.934247 256.923 0.145518L129.674 0.237408C129.673-0.842358 128.797-1.71705 127.717-1.71627 126.638-1.71549 125.763-0.839535 125.764 0.240232L64.7059 0.284324C64.7052-0.795443 63.829-1.67013 62.7493-1.66935 61.6696-1.66857 60.795-0.792618 60.7957 0.287146L1.77735 0.329767" stroke="#333333" stroke-width="0.488772" stroke-dasharray="1.95509 1.95509" transform="matrix(1.0001 0 0 1 702.739 357.701)"/></g><path d="M-1.99952-1.99952 0 0-1.99952 1.99952M-1.99952 0 0 0" stroke="#333333" stroke-width="0.439895" transform="matrix(-1.0001 0.000722132 -0.000722205 -1 703.228 358.032)"/><text fill="#333333" font-family="Noto Sans,Noto Sans_MSFontService,sans-serif" font-weight="400" font-size="14" transform="matrix(0.244411 0 0 0.244386 813.074 359)">&lt;&lt;</text><text fill="#333333" font-family="Noto Sans,Noto Sans_MSFontService,sans-serif" font-weight="400" font-size="14" transform="matrix(0.244411 0 0 0.244386 816.843 359)">return sustainability data</text><text fill="#333333" font-family="Noto Sans,Noto Sans_MSFontService,sans-serif" font-weight="400" font-size="14" transform="matrix(0.244411 0 0 0.244386 857.184 359)">&gt;&gt;</text><g clip-path="url(#clip35)"><path d="M0 0.138 57.0842 0.00763111" stroke="#333333" stroke-width="0.488772" transform="matrix(1.0001 0 0 1 702.739 363.887)"/></g><path d="M-4.17678-2.08839 0 0-4.17678 2.08839Z" fill="#333333" transform="matrix(1.0001 -0.00228379 0.00228402 0.999997 763.171 363.887)"/><text fill="#333333" font-family="Noto Sans,Noto Sans_MSFontService,sans-serif" font-weight="400" font-size="14" transform="matrix(0.244411 0 0 0.244386 716.704 365)">&lt;&lt;</text><text fill="#333333" font-family="Noto Sans,Noto Sans_MSFontService,sans-serif" font-weight="400" font-size="14" transform="matrix(0.244411 0 0 0.244386 720.473 365)">update AAS</text><text fill="#333333" font-family="Noto Sans,Noto Sans_MSFontService,sans-serif" font-weight="400" font-size="14" transform="matrix(0.244411 0 0 0.244386 739.024 365)">&gt;&gt;</text><g><g><path d="M0 0 4.3042 0 4.3042 9.96072 2.13301e-07 9.96072Z" stroke="#1A1A1A" stroke-width="0.977545" fill="#FFFFFF" fill-rule="evenodd" transform="matrix(1.0001 0 0 1 763.353 361.88)"/></g></g><g><g><path d="M0 0 4.3042 0 4.3042 26.0012 2.13301e-07 26.0012Z" stroke="#1A1A1A" stroke-width="0.977545" fill="#FFFFFF" fill-rule="evenodd" transform="matrix(1.0001 0 0 1 1161.22 504.294)"/></g></g><g clip-path="url(#clip36)"><path d="M0 0 16.2601 0C17.5635 0 18.2152 0.651697 18.2152 1.95509L18.2152 11.9743C18.2152 13.2777 17.5635 13.9294 16.2601 13.9294L3.34142 13.9294" stroke="#333333" stroke-width="0.488772" transform="matrix(1.0001 0 0 1 1165.52 509.451)"/></g><path d="M-4.17678-2.08839 0 0-4.17678 2.08839Z" fill="#333333" transform="matrix(-1.0001 1.22465e-16 -1.22477e-16 -1 1165.52 523.38)"/><text fill="#333333" font-family="Noto Sans,Noto Sans_MSFontService,sans-serif" font-weight="400" font-size="14" transform="matrix(0.244411 0 0 0.244386 1174.7 514)">&lt;&lt;</text><text fill="#333333" font-family="Noto Sans,Noto Sans_MSFontService,sans-serif" font-weight="400" font-size="14" transform="matrix(0.244411 0 0 0.244386 1178.47 514)">calculate</text><text fill="#333333" font-family="Noto Sans,Noto Sans_MSFontService,sans-serif" font-weight="400" font-size="14" transform="matrix(0.244411 0 0 0.244386 1167.59 518)">sustainabilty data</text><text fill="#333333" font-family="Noto Sans,Noto Sans_MSFontService,sans-serif" font-weight="400" font-size="14" transform="matrix(0.244411 0 0 0.244386 1195.97 518)">&gt;&gt;</text><g><g><path d="M0 0 4.3042 0 4.3042 17.1032 2.13301e-07 17.1032Z" stroke="#1A1A1A" stroke-width="0.977545" fill="#FFFFFF" fill-rule="evenodd" transform="matrix(1.0001 0 0 1 763.133 484.22)"/></g></g><g clip-path="url(#clip37)"><path d="M60.6078 0 1.77735 0" stroke="#333333" stroke-width="0.488772" stroke-dasharray="1.95509 1.95509" fill="none" transform="matrix(1.0001 0 0 1 702.519 497.415)"/></g><path d="M-1.99952-1.99952 0 0-1.99952 1.99952M-1.99952 0 0 0" stroke="#333333" stroke-width="0.439895" transform="matrix(-1.0001 1.22464e-16 -1.22477e-16 -1 703.008 497.415)"/><text fill="#333333" font-family="Noto Sans,Noto Sans_MSFontService,sans-serif" font-weight="400" font-size="14" transform="matrix(0.244411 0 0 0.244386 718.08 498)">&lt;&lt;</text><text fill="#333333" font-family="Noto Sans,Noto Sans_MSFontService,sans-serif" font-weight="400" font-size="14" transform="matrix(0.244411 0 0 0.244386 721.849 498)">return data</text><text fill="#333333" font-family="Noto Sans,Noto Sans_MSFontService,sans-serif" font-weight="400" font-size="14" transform="matrix(0.244411 0 0 0.244386 740.106 498)">&gt;&gt;</text><g><g><path d="M0 0 4.3042 0 4.3042 67.7876 2.13301e-07 67.7876Z" stroke="#1A1A1A" stroke-width="0.977545" fill="#FFFFFF" fill-rule="evenodd" transform="matrix(1.0001 0 0 1 698.215 481.036)"/></g></g><g clip-path="url(#clip38)"><path d="M0 0.0360685 57.2663 0.00198852" stroke="#333333" stroke-width="0.488772" transform="matrix(1.0001 0 0 1 702.519 486.713)"/></g><path d="M-4.17678-2.08839 0 0-4.17678 2.08839Z" fill="#333333" transform="matrix(1.0001 -0.000595112 0.000595172 1 763.133 486.713)"/><text fill="#333333" font-family="Noto Sans,Noto Sans_MSFontService,sans-serif" font-weight="400" font-size="14" transform="matrix(0.244411 0 0 0.244386 718.626 488)">&lt;&lt;</text><text fill="#333333" font-family="Noto Sans,Noto Sans_MSFontService,sans-serif" font-weight="400" font-size="14" transform="matrix(0.244411 0 0 0.244386 722.395 488)">read AAS</text><text fill="#333333" font-family="Noto Sans,Noto Sans_MSFontService,sans-serif" font-weight="400" font-size="14" transform="matrix(0.244411 0 0 0.244386 736.87 488)">&gt;&gt;</text><g clip-path="url(#clip39)"><path d="M0 0.109382 61.1772 0.0947918C61.177-0.984974 62.0521-1.86051 63.1318-1.86076 64.2115-1.86102 65.0871-0.985908 65.0874 0.0938592L125.952 0.0793441C125.952-1.00042 126.827-1.87596 127.906-1.87621 128.986-1.87647 129.862-1.00136 129.862 0.0784116L257.038 0.0480818C257.038-1.03168 257.913-1.90722 258.993-1.90747 260.073-1.90773 260.948-1.03262 260.948 0.0471492L392.345 0.0158137C392.343-1.06395 393.22-1.93949 394.298-1.93974 395.378-1.94 396.253-1.06488 396.255 0.0148812L455.311 0.000796877" stroke="#333333" stroke-width="0.488772" transform="matrix(1.0001 0 0 1 702.519 509.531)"/></g><path d="M-4.17678-2.08839 0 0-4.17678 2.08839Z" fill="#333333" transform="matrix(1.0001 -0.000238484 0.000238508 1 1161.22 509.531)"/><text fill="#333333" font-family="Noto Sans,Noto Sans_MSFontService,sans-serif" font-weight="400" font-size="14" transform="matrix(0.244411 0 0 0.244386 830.493 511)">&lt;&lt;</text><text fill="#333333" font-family="Noto Sans,Noto Sans_MSFontService,sans-serif" font-weight="400" font-size="14" transform="matrix(0.244411 0 0 0.244386 834.262 511)">call API</text><text fill="#333333" font-family="Noto Sans,Noto Sans_MSFontService,sans-serif" font-weight="400" font-size="14" transform="matrix(0.244411 0 0 0.244386 845.894 511)">&gt;&gt;</text><g clip-path="url(#clip40)"><path d="M458.654 0.100848 396.299 0.0871374C396.299-0.992628 395.424-1.86814 394.344-1.86838 393.264-1.86862 392.389-0.993489 392.389 0.0862779L260.939 0.0573746C260.939-1.02239 260.064-1.89791 258.983-1.89815 257.903-1.89838 257.028-1.02325 257.028 0.0565148L129.859 0.0285531C129.859-1.05121 128.984-1.92673 127.904-1.92697 126.824-1.9272 125.949-1.05207 125.948 0.0276934L65.105 0.0143151C65.105-1.06545 64.2301-1.94097 63.1501-1.9412 62.0704-1.94144 61.1948-1.06631 61.1948 0.0134554L1.77735 0.0003908" stroke="#333333" stroke-width="0.488772" stroke-dasharray="1.95509 1.95509" transform="matrix(1.0001 0 0 1 702.519 526.017)"/></g><path d="M-1.99952-1.99952 0 0-1.99952 1.99952M-1.99952 0 0 0" stroke="#333333" stroke-width="0.439895" transform="matrix(-1.0001 -0.000219878 0.0002199 -1 703.008 526.018)"/><text fill="#333333" font-family="Noto Sans,Noto Sans_MSFontService,sans-serif" font-weight="400" font-size="14" transform="matrix(0.244411 0 0 0.244386 812.917 527)">&lt;&lt;</text><text fill="#333333" font-family="Noto Sans,Noto Sans_MSFontService,sans-serif" font-weight="400" font-size="14" transform="matrix(0.244411 0 0 0.244386 816.687 527)">return sustainability data</text><text fill="#333333" font-family="Noto Sans,Noto Sans_MSFontService,sans-serif" font-weight="400" font-size="14" transform="matrix(0.244411 0 0 0.244386 857.028 527)">&gt;&gt;</text><g clip-path="url(#clip41)"><path d="M0 0.0291936 57.0842 0.00161435" stroke="#333333" stroke-width="0.488772" transform="matrix(1.0001 0 0 1 702.519 534.239)"/></g><path d="M-4.17678-2.08839 0 0-4.17678 2.08839Z" fill="#333333" transform="matrix(1.0001 -0.000483133 0.000483182 1 762.951 534.239)"/><text fill="#333333" font-family="Noto Sans,Noto Sans_MSFontService,sans-serif" font-weight="400" font-size="14" transform="matrix(0.244411 0 0 0.244386 716.484 535)">&lt;&lt;</text><text fill="#333333" font-family="Noto Sans,Noto Sans_MSFontService,sans-serif" font-weight="400" font-size="14" transform="matrix(0.244411 0 0 0.244386 720.253 535)">update AAS</text><text fill="#333333" font-family="Noto Sans,Noto Sans_MSFontService,sans-serif" font-weight="400" font-size="14" transform="matrix(0.244411 0 0 0.244386 738.804 535)">&gt;&gt;</text><g><g><path d="M0 0 4.3042 0 4.3042 9.96072 2.13301e-07 9.96072Z" stroke="#1A1A1A" stroke-width="0.977545" fill="#FFFFFF" fill-rule="evenodd" transform="matrix(1.0001 0 0 1 763.133 532.232)"/></g></g><g clip-path="url(#clip42)"><path d="M60.6552 0.00948412 1.77735 0.000277909" stroke="#333333" stroke-width="0.488772" stroke-dasharray="1.95509 1.95509" transform="matrix(1.0001 0 0 1 637.773 227.925)"/></g><path d="M-1.99952-1.99952 0 0-1.99952 1.99952M-1.99952 0 0 0" stroke="#333333" stroke-width="0.439895" transform="matrix(-1.0001 -0.000156361 0.000156377 -1 638.261 227.925)"/><text fill="#333333" font-family="Noto Sans,Noto Sans_MSFontService,sans-serif" font-weight="400" font-size="14" transform="matrix(0.244411 0 0 0.244386 654.672 229)">&lt;&lt;</text><text fill="#333333" font-family="Noto Sans,Noto Sans_MSFontService,sans-serif" font-weight="400" font-size="14" transform="matrix(0.244411 0 0 0.244386 658.441 229)">show AAS</text><text fill="#333333" font-family="Noto Sans,Noto Sans_MSFontService,sans-serif" font-weight="400" font-size="14" transform="matrix(0.244411 0 0 0.244386 674.063 229)">&gt;&gt;</text><g clip-path="url(#clip43)"><path d="M60.6552 0 1.77735 0.146655" stroke="#333333" stroke-width="0.488772" stroke-dasharray="1.95509 1.95509" transform="matrix(1.0001 0 0 1 637.773 373.894)"/></g><path d="M-1.99952-1.99952 0 0-1.99952 1.99952M-1.99952 0 0 0" stroke="#333333" stroke-width="0.439895" transform="matrix(-1.0001 0.00249082 -0.00249107 -0.999997 638.261 374.044)"/><text fill="#333333" font-family="Noto Sans,Noto Sans_MSFontService,sans-serif" font-weight="400" font-size="14" transform="matrix(0.244411 0 0 0.244386 654.672 375)">&lt;&lt;</text><text fill="#333333" font-family="Noto Sans,Noto Sans_MSFontService,sans-serif" font-weight="400" font-size="14" transform="matrix(0.244411 0 0 0.244386 658.441 375)">show AAS</text><text fill="#333333" font-family="Noto Sans,Noto Sans_MSFontService,sans-serif" font-weight="400" font-size="14" transform="matrix(0.244411 0 0 0.244386 674.063 375)">&gt;&gt;</text><g clip-path="url(#clip44)"><path d="M60.4355 0 1.77735 0.0795101" stroke="#333333" stroke-width="0.488772" stroke-dasharray="1.95509 1.95509" transform="matrix(1.0001 0 0 1 637.773 539.236)"/></g><path d="M-1.99952-1.99952 0 0-1.99952 1.99952M-1.99952 0 0 0" stroke="#333333" stroke-width="0.439895" transform="matrix(-1.0001 0.00135548 -0.00135562 -0.999999 638.261 539.318)"/><text fill="#333333" font-family="Noto Sans,Noto Sans_MSFontService,sans-serif" font-weight="400" font-size="14" transform="matrix(0.244411 0 0 0.244386 654.572 540)">&lt;&lt;</text><text fill="#333333" font-family="Noto Sans,Noto Sans_MSFontService,sans-serif" font-weight="400" font-size="14" transform="matrix(0.244411 0 0 0.244386 658.341 540)">show AAS</text><text fill="#333333" font-family="Noto Sans,Noto Sans_MSFontService,sans-serif" font-weight="400" font-size="14" transform="matrix(0.244411 0 0 0.244386 673.963 540)">&gt;&gt;</text><g clip-path="url(#clip45)"><path d="M60.6552 0 1.77734 0.239826" stroke="#333333" stroke-width="0.488772" stroke-dasharray="1.95509 1.95509" transform="matrix(1.0001 0 0 1 637.773 661.535)"/></g><path d="M-1.99952-1.99952 0 0-1.99952 1.99952M-1.99952 0 0 0" stroke="#333333" stroke-width="0.439895" transform="matrix(-1.00009 0.00407325 -0.00407367 -0.999992 638.261 661.78)"/><text fill="#333333" font-family="Noto Sans,Noto Sans_MSFontService,sans-serif" font-weight="400" font-size="14" transform="matrix(0.244411 0 0 0.244386 654.672 663)">&lt;&lt;</text><text fill="#333333" font-family="Noto Sans,Noto Sans_MSFontService,sans-serif" font-weight="400" font-size="14" transform="matrix(0.244411 0 0 0.244386 658.441 663)">show AAS</text><text fill="#333333" font-family="Noto Sans,Noto Sans_MSFontService,sans-serif" font-weight="400" font-size="14" transform="matrix(0.244411 0 0 0.244386 674.063 663)">&gt;&gt;</text><g><g><path d="M0 0 4.3042 0 4.3042 67.7876 2.13301e-07 67.7876Z" stroke="#1A1A1A" stroke-width="0.977545" fill="#FFFFFF" fill-rule="evenodd" transform="matrix(1.0001 0 0 1 698.653 601.682)"/></g></g><g clip-path="url(#clip46)"><path d="M60.6078 0 1.77735 0" stroke="#333333" stroke-width="0.488772" stroke-dasharray="1.95509 1.95509" fill="none" transform="matrix(1.0001 0 0 1 702.959 618.061)"/></g><path d="M-1.99952-1.99952 0 0-1.99952 1.99952M-1.99952 0 0 0" stroke="#333333" stroke-width="0.439895" transform="matrix(-1.0001 1.22464e-16 -1.22477e-16 -1 703.448 618.061)"/><text fill="#333333" font-family="Noto Sans,Noto Sans_MSFontService,sans-serif" font-weight="400" font-size="14" transform="matrix(0.244411 0 0 0.244386 718.52 619)">&lt;&lt;</text><text fill="#333333" font-family="Noto Sans,Noto Sans_MSFontService,sans-serif" font-weight="400" font-size="14" transform="matrix(0.244411 0 0 0.244386 722.289 619)">return data</text><text fill="#333333" font-family="Noto Sans,Noto Sans_MSFontService,sans-serif" font-weight="400" font-size="14" transform="matrix(0.244411 0 0 0.244386 740.546 619)">&gt;&gt;</text><g><g><path d="M0 0 4.3042 0 4.3042 9.96072 2.13301e-07 9.96072Z" stroke="#1A1A1A" stroke-width="0.977545" fill="#FFFFFF" fill-rule="evenodd" transform="matrix(1.0001 0 0 1 763.573 584.245)"/></g></g><g clip-path="url(#clip47)"><path d="M0 0 57.2663 0.0261901" stroke="#333333" stroke-width="0.488772" transform="matrix(1.0001 0 0 1 702.959 586.54)"/></g><path d="M-4.17678-2.08839 0 0-4.17678 2.08839Z" fill="#333333" transform="matrix(1.0001 0.000457339 -0.000457385 1 763.573 586.567)"/><text fill="#333333" font-family="Noto Sans,Noto Sans_MSFontService,sans-serif" font-weight="400" font-size="14" transform="matrix(0.244411 0 0 0.244386 712.508 588)">&lt;&lt;</text><text fill="#333333" font-family="Noto Sans,Noto Sans_MSFontService,sans-serif" font-weight="400" font-size="14" transform="matrix(0.244411 0 0 0.244386 716.277 588)">write data to AAS</text><text fill="#333333" font-family="Noto Sans,Noto Sans_MSFontService,sans-serif" font-weight="400" font-size="14" transform="matrix(0.244411 0 0 0.244386 743.83 588)">&gt;&gt;</text><g clip-path="url(#clip48)"><path d="M0 0.010133 57.0842 0.000560336" stroke="#333333" stroke-width="0.488772" transform="matrix(1.0001 0 0 1 702.959 654.885)"/></g><path d="M-4.17678-2.08839 0 0-4.17678 2.08839Z" fill="#333333" transform="matrix(1.0001 -0.000167693 0.00016771 1 763.391 654.885)"/><text fill="#333333" font-family="Noto Sans,Noto Sans_MSFontService,sans-serif" font-weight="400" font-size="14" transform="matrix(0.244411 0 0 0.244386 716.924 656)">&lt;&lt;</text><text fill="#333333" font-family="Noto Sans,Noto Sans_MSFontService,sans-serif" font-weight="400" font-size="14" transform="matrix(0.244411 0 0 0.244386 720.693 656)">update AAS</text><text fill="#333333" font-family="Noto Sans,Noto Sans_MSFontService,sans-serif" font-weight="400" font-size="14" transform="matrix(0.244411 0 0 0.244386 739.244 656)">&gt;&gt;</text><g><g><path d="M0 0 4.3042 0 4.3042 17.1032 2.13301e-07 17.1032Z" stroke="#1A1A1A" stroke-width="0.977545" fill="#FFFFFF" fill-rule="evenodd" transform="matrix(1.0001 0 0 1 763.573 604.866)"/></g></g><g clip-path="url(#clip49)"><path d="M0 0 57.2663 0.00215986" stroke="#333333" stroke-width="0.488772" transform="matrix(1.0001 0 0 1 702.959 607.357)"/></g><path d="M-4.17678-2.08839 0 0-4.17678 2.08839Z" fill="#333333" transform="matrix(1.0001 3.7716e-05 -3.77198e-05 1 763.573 607.359)"/><text fill="#333333" font-family="Noto Sans,Noto Sans_MSFontService,sans-serif" font-weight="400" font-size="14" transform="matrix(0.244411 0 0 0.244386 719.066 608)">&lt;&lt;</text><text fill="#333333" font-family="Noto Sans,Noto Sans_MSFontService,sans-serif" font-weight="400" font-size="14" transform="matrix(0.244411 0 0 0.244386 722.835 608)">read AAS</text><text fill="#333333" font-family="Noto Sans,Noto Sans_MSFontService,sans-serif" font-weight="400" font-size="14" transform="matrix(0.244411 0 0 0.244386 737.31 608)">&gt;&gt;</text><g><g><path d="M0 0 4.3042 0 4.3042 9.96072 2.13301e-07 9.96072Z" stroke="#1A1A1A" stroke-width="0.977545" fill="#FFFFFF" fill-rule="evenodd" transform="matrix(1.0001 0 0 1 763.573 652.878)"/></g></g><g><g><path d="M0 0 4.3042 0 4.3042 9.96072 2.13301e-07 9.96072Z" stroke="#1A1A1A" stroke-width="0.977545" fill="#FFFFFF" fill-rule="evenodd" transform="matrix(1.0001 0 0 1 828.252 663.683)"/></g></g><g clip-path="url(#clip50)"><path d="M0 0 121.938 0.0685049" stroke="#333333" stroke-width="0.488772" transform="matrix(1.0001 0 0 1 702.959 665.469)"/></g><path d="M-4.17678-2.08839 0 0-4.17678 2.08839Z" fill="#333333" transform="matrix(1.0001 0.000561798 -0.000561855 1 828.252 665.54)"/><text fill="#333333" font-family="Noto Sans,Noto Sans_MSFontService,sans-serif" font-weight="400" font-size="14" transform="matrix(0.244411 0 0 0.244386 747.417 666)">&lt;&lt;</text><text fill="#333333" font-family="Noto Sans,Noto Sans_MSFontService,sans-serif" font-weight="400" font-size="14" transform="matrix(0.244411 0 0 0.244386 751.186 666)">update PLM</text><text fill="#333333" font-family="Noto Sans,Noto Sans_MSFontService,sans-serif" font-weight="400" font-size="14" transform="matrix(0.244411 0 0 0.244386 770.452 666)">&gt;&gt;</text><g><g><path d="M0 0 4.3042 0 4.3042 26.0012 2.13301e-07 26.0012Z" stroke="#1A1A1A" stroke-width="0.977545" fill="#FFFFFF" fill-rule="evenodd" transform="matrix(1.0001 0 0 1 1161.22 626.878)"/></g></g><g clip-path="url(#clip51)"><path d="M0 0 60.8688 0.0241616C60.869-1.0556 61.7447-1.93058 62.8246-1.93015 63.9043-1.92972 64.7792-1.05405 64.779 0.0257138L125.487 0.0498118C125.488-1.02995 126.364-1.90493 127.443-1.9045 128.523-1.90407 129.398-1.0284 129.398 0.0513639L256.518 0.101824C256.518-0.977943 257.392-1.85292 258.473-1.85249 259.553-1.85206 260.428-0.976391 260.428 0.103376L392.237 0.155697C392.237-0.924068 393.112-1.79904 394.193-1.79862 395.273-1.79819 396.148-0.922516 396.148 0.157249L454.874 0.18056" stroke="#333333" stroke-width="0.488772" transform="matrix(1.0001 0 0 1 702.959 631.932)"/></g><path d="M-4.17678-2.08839 0 0-4.17678 2.08839Z" fill="#333333" transform="matrix(1.0001 0.000396946 -0.000396986 1 1161.22 632.114)"/><text fill="#333333" font-family="Noto Sans,Noto Sans_MSFontService,sans-serif" font-weight="400" font-size="14" transform="matrix(0.244411 0 0 0.244386 830.8 633)">&lt;&lt;</text><text fill="#333333" font-family="Noto Sans,Noto Sans_MSFontService,sans-serif" font-weight="400" font-size="14" transform="matrix(0.244411 0 0 0.244386 834.569 633)">call API</text><text fill="#333333" font-family="Noto Sans,Noto Sans_MSFontService,sans-serif" font-weight="400" font-size="14" transform="matrix(0.244411 0 0 0.244386 846.201 633)">&gt;&gt;</text><g clip-path="url(#clip52)"><path d="M458.214 0.0960907 396.192 0.0830842C396.194-0.996683 395.317-1.87219 394.239-1.87242 393.159-1.87264 392.284-0.997501 392.281 0.0822643L260.415 0.054611C260.415-1.02516 259.541-1.90066 258.46-1.90089 257.383-1.90111 256.505-1.02597 256.505 0.0537911L129.394 0.0271349C129.394-1.05263 128.519-1.92814 127.439-1.92836 126.36-1.92859 125.484-1.05345 125.484 0.0263148L64.7966 0.0135883C64.7968-1.06618 63.9217-1.94169 62.842-1.94191 61.7623-1.94214 60.8866-1.067 60.8864 0.0127683L1.77735 0.000372723" stroke="#333333" stroke-width="0.488772" stroke-dasharray="1.95509 1.95509" transform="matrix(1.0001 0 0 1 702.959 648.607)"/></g><path d="M-1.99952-1.99952 0 0-1.99952 1.99952M-1.99952 0 0 0" stroke="#333333" stroke-width="0.439895" transform="matrix(-1.0001 -0.000209707 0.000209728 -1 703.448 648.607)"/><text fill="#333333" font-family="Noto Sans,Noto Sans_MSFontService,sans-serif" font-weight="400" font-size="14" transform="matrix(0.244411 0 0 0.244386 813.23 650)">&lt;&lt;</text><text fill="#333333" font-family="Noto Sans,Noto Sans_MSFontService,sans-serif" font-weight="400" font-size="14" transform="matrix(0.244411 0 0 0.244386 816.999 650)">return sustainability data</text><text fill="#333333" font-family="Noto Sans,Noto Sans_MSFontService,sans-serif" font-weight="400" font-size="14" transform="matrix(0.244411 0 0 0.244386 857.34 650)">&gt;&gt;</text><g clip-path="url(#clip53)"><path d="M0 0 16.2601 0C17.5635 0 18.2152 0.651697 18.2152 1.95509L18.2152 11.9743C18.2152 13.2777 17.5635 13.9294 16.2601 13.9294L3.34142 13.9294" stroke="#333333" stroke-width="0.488772" transform="matrix(1.0001 0 0 1 1165.52 632.032)"/></g><path d="M-4.17678-2.08839 0 0-4.17678 2.08839Z" fill="#333333" transform="matrix(-1.0001 1.22465e-16 -1.22477e-16 -1 1165.52 645.962)"/><text fill="#333333" font-family="Noto Sans,Noto Sans_MSFontService,sans-serif" font-weight="400" font-size="14" transform="matrix(0.244411 0 0 0.244386 1174.7 636)">&lt;&lt;</text><text fill="#333333" font-family="Noto Sans,Noto Sans_MSFontService,sans-serif" font-weight="400" font-size="14" transform="matrix(0.244411 0 0 0.244386 1178.47 636)">calculate</text><text fill="#333333" font-family="Noto Sans,Noto Sans_MSFontService,sans-serif" font-weight="400" font-size="14" transform="matrix(0.244411 0 0 0.244386 1167.59 641)">sustainabilty data</text><text fill="#333333" font-family="Noto Sans,Noto Sans_MSFontService,sans-serif" font-weight="400" font-size="14" transform="matrix(0.244411 0 0 0.244386 1195.97 641)">&gt;&gt;</text><g clip-path="url(#clip54)"></g><text fill="#1A1A1A" font-family="Noto Sans,Noto Sans_MSFontService,sans-serif" font-weight="400" font-size="36" transform="matrix(0.244411 0 0 0.244386 604.804 174)">UC</text><text fill="#1A1A1A" font-family="Noto Sans,Noto Sans_MSFontService,sans-serif" font-weight="400" font-size="36" transform="matrix(0.244411 0 0 0.244386 616.795 174)">1</text><g clip-path="url(#clip55)"></g><text fill="#1A1A1A" font-family="Noto Sans,Noto Sans_MSFontService,sans-serif" font-weight="400" font-size="36" transform="matrix(0.244411 0 0 0.244386 604.804 314)">UC</text><text fill="#1A1A1A" font-family="Noto Sans,Noto Sans_MSFontService,sans-serif" font-weight="400" font-size="36" transform="matrix(0.244411 0 0 0.244386 616.795 314)">2</text><g clip-path="url(#clip56)"></g><text fill="#1A1A1A" font-family="Noto Sans,Noto Sans_MSFontService,sans-serif" font-weight="400" font-size="36" transform="matrix(0.244411 0 0 0.244386 604.804 469)">UC</text><text fill="#1A1A1A" font-family="Noto Sans,Noto Sans_MSFontService,sans-serif" font-weight="400" font-size="36" transform="matrix(0.244411 0 0 0.244386 616.795 469)">3</text><g clip-path="url(#clip57)"></g><text fill="#1A1A1A" font-family="Noto Sans,Noto Sans_MSFontService,sans-serif" font-weight="400" font-size="36" transform="matrix(0.244411 0 0 0.244386 604.804 615)">UC </text><text fill="#1A1A1A" font-family="Noto Sans,Noto Sans_MSFontService,sans-serif" font-weight="400" font-size="36" transform="matrix(0.244411 0 0 0.244386 619.081 615)">4 </text><text fill="#1A1A1A" font-family="Noto Sans,Noto Sans_MSFontService,sans-serif" font-weight="400" font-size="36" transform="matrix(0.244411 0 0 0.244386 626.212 615)">/</text><text fill="#1A1A1A" font-family="Noto Sans,Noto Sans_MSFontService,sans-serif" font-weight="400" font-size="36" transform="matrix(0.244411 0 0 0.244386 629.989 615)"> </text><text fill="#1A1A1A" font-family="Noto Sans,Noto Sans_MSFontService,sans-serif" font-weight="400" font-size="36" transform="matrix(0.244411 0 0 0.244386 604.804 628)">UC </text><text fill="#1A1A1A" font-family="Noto Sans,Noto Sans_MSFontService,sans-serif" font-weight="400" font-size="36" transform="matrix(0.244411 0 0 0.244386 619.081 628)">5</text><g><g><path d="M0 0 4.3042 0 4.3042 9.96072 2.13301e-07 9.96072Z" stroke="#1A1A1A" stroke-width="0.977545" fill="#FFFFFF" fill-rule="evenodd" transform="matrix(1.0001 0 0 1 959.021 542.193)"/></g></g><g clip-path="url(#clip58)"><path d="M0 0 253.135 0.0457819" stroke="#333333" stroke-width="0.488772" transform="matrix(1.0001 0 0 1 702.519 544.004)"/></g><path d="M-4.17678-2.08839 0 0-4.17678 2.08839Z" fill="#333333" transform="matrix(1.0001 0.00018086 -0.000180878 1 959.021 544.051)"/><text fill="#333333" font-family="Noto Sans,Noto Sans_MSFontService,sans-serif" font-weight="400" font-size="14" transform="matrix(0.244411 0 0 0.244386 809.817 545)">&lt;&lt;</text><text fill="#333333" font-family="Noto Sans,Noto Sans_MSFontService,sans-serif" font-weight="400" font-size="14" transform="matrix(0.244411 0 0 0.244386 813.586 545)">update ERP</text><text fill="#333333" font-family="Noto Sans,Noto Sans_MSFontService,sans-serif" font-weight="400" font-size="14" transform="matrix(0.244411 0 0 0.244386 831.987 545)">&gt;&gt;</text></g></svg>