<svg width="4140" height="1499" xmlns="http://www.w3.org/2000/svg" xmlns:xlink="http://www.w3.org/1999/xlink" xml:space="preserve" overflow="hidden"><g transform="translate(-157 -569)"><path d="M2836 617.518 2836 570.577 4040.06 570.577 4040.06 605" stroke="#000000" stroke-width="2.29167" stroke-linejoin="round" stroke-miterlimit="10" fill="none" fill-rule="evenodd"/><path d="M161 1039.98C161 1021.77 175.767 1007 193.984 1007L648.016 1007C666.233 1007 681 1021.77 681 1039.98L681 1268.02C681 1286.23 666.233 1301 648.016 1301L193.984 1301C175.767 1301 161 1286.23 161 1268.02Z" stroke="#000000" stroke-width="2.29167" stroke-miterlimit="8" fill="#FFEFCB" fill-rule="evenodd"/><text font-family="Calibri,Calibri_MSFontService,sans-serif" font-weight="400" font-size="73" transform="matrix(1 0 0 1 232.191 1083)">Specification</text><path d="M161 1195 680.961 1195" stroke="#000000" stroke-width="2.29167" stroke-miterlimit="8" fill="#FFEFCB" fill-rule="evenodd"/><path d="M161 1245 680.961 1245" stroke="#000000" stroke-width="2.29167" stroke-miterlimit="8" fill="#FFEFCB" fill-rule="evenodd"/><path d="M161 650.984C161 632.768 175.767 618 193.984 618L648.016 618C666.233 618 681 632.768 681 650.984L681 879.017C681 897.233 666.233 912 648.016 912L193.984 912C175.767 912 161 897.233 161 879.017Z" stroke="#000000" stroke-width="2.29167" stroke-miterlimit="8" fill="#FFEFCB" fill-rule="evenodd"/><text font-family="Calibri,Calibri_MSFontService,sans-serif" font-weight="400" font-size="73" transform="matrix(1 0 0 1 227.562 694)">Requirement</text><path d="M161 806 680.961 806" stroke="#000000" stroke-width="2.29167" stroke-miterlimit="8" fill="none" fill-rule="evenodd"/><path d="M161 856 680.961 856" stroke="#000000" stroke-width="2.29167" stroke-miterlimit="8" fill="none" fill-rule="evenodd"/><path d="M765 650.984C765 632.768 779.767 618 797.984 618L1252.02 618C1270.23 618 1285 632.768 1285 650.984L1285 879.017C1285 897.233 1270.23 912 1252.02 912L797.984 912C779.767 912 765 897.233 765 879.017Z" stroke="#000000" stroke-width="2.29167" stroke-miterlimit="8" fill="#FFEFCB" fill-rule="evenodd"/><text font-family="Calibri,Calibri_MSFontService,sans-serif" font-weight="400" font-size="73" transform="matrix(1 0 0 1 895.207 694)">Function</text><path d="M765 806 1284.96 806" stroke="#000000" stroke-width="2.29167" stroke-miterlimit="8" fill="#FFEFCB" fill-rule="evenodd"/><path d="M765 856 1284.96 856" stroke="#000000" stroke-width="2.29167" stroke-miterlimit="8" fill="#FFEFCB" fill-rule="evenodd"/><path d="M1369 650.984C1369 632.768 1383.77 618 1401.98 618L1856.02 618C1874.23 618 1889 632.768 1889 650.984L1889 879.017C1889 897.233 1874.23 912 1856.02 912L1401.98 912C1383.77 912 1369 897.233 1369 879.017Z" stroke="#000000" stroke-width="2.29167" stroke-miterlimit="8" fill="#FFEFCB" fill-rule="evenodd"/><text font-family="Calibri,Calibri_MSFontService,sans-serif" font-weight="400" font-size="73" transform="matrix(1 0 0 1 1497.32 694)">Behavior</text><path d="M1369 806 1888.96 806" stroke="#000000" stroke-width="2.29167" stroke-miterlimit="8" fill="#FFEFCB" fill-rule="evenodd"/><path d="M1369 856 1888.96 856" stroke="#000000" stroke-width="2.29167" stroke-miterlimit="8" fill="#FFEFCB" fill-rule="evenodd"/><path d="M1973 650.984C1973 632.768 1987.77 618 2005.98 618L2460.02 618C2478.23 618 2493 632.768 2493 650.984L2493 879.017C2493 897.233 2478.23 912 2460.02 912L2005.98 912C1987.77 912 1973 897.233 1973 879.017Z" stroke="#000000" stroke-width="2.29167" stroke-miterlimit="8" fill="#FECF64" fill-rule="evenodd"/><text font-family="Calibri,Calibri_MSFontService,sans-serif" font-weight="400" font-size="73" transform="matrix(1 0 0 1 2109.68 694)">Solution </text><text font-family="Calibri,Calibri_MSFontService,sans-serif" font-weight="400" font-size="73" transform="matrix(1 0 0 1 2103.95 773)">Princ</text><text font-family="Calibri,Calibri_MSFontService,sans-serif" font-weight="400" font-size="73" transform="matrix(1 0 0 1 2253.48 773)">ipl</text><text font-family="Calibri,Calibri_MSFontService,sans-serif" font-weight="400" font-size="73" transform="matrix(1 0 0 1 2325.1 773)">e</text><path d="M1973 806 2492.96 806" stroke="#000000" stroke-width="2.29167" stroke-miterlimit="8" fill="#FECF64" fill-rule="evenodd"/><path d="M1973 856 2492.96 856" stroke="#000000" stroke-width="2.29167" stroke-miterlimit="8" fill="#FECF64" fill-rule="evenodd"/><path d="M765 1039.98C765 1021.77 779.767 1007 797.984 1007L1252.02 1007C1270.23 1007 1285 1021.77 1285 1039.98L1285 1268.02C1285 1286.23 1270.23 1301 1252.02 1301L797.984 1301C779.767 1301 765 1286.23 765 1268.02Z" stroke="#000000" stroke-width="2.29167" stroke-miterlimit="8" fill="#FFEFCB" fill-rule="evenodd"/><text font-family="Calibri,Calibri_MSFontService,sans-serif" font-weight="400" font-size="73" transform="matrix(1 0 0 1 817.221 1083)">Core Property</text><path d="M765 1195 1284.96 1195" stroke="#000000" stroke-width="2.29167" stroke-miterlimit="8" fill="#FFEFCB" fill-rule="evenodd"/><path d="M765 1245 1284.96 1245" stroke="#000000" stroke-width="2.29167" stroke-miterlimit="8" fill="#FFEFCB" fill-rule="evenodd"/><path d="M161 1422.98C161 1404.77 175.767 1390 193.984 1390L648.016 1390C666.233 1390 681 1404.77 681 1422.98L681 1651.02C681 1669.23 666.233 1684 648.016 1684L193.984 1684C175.767 1684 161 1669.23 161 1651.02Z" stroke="#000000" stroke-width="2.29167" stroke-miterlimit="8" fill="#FFEFCB" fill-rule="evenodd"/><text font-family="Calibri,Calibri_MSFontService,sans-serif" font-weight="400" font-size="73" transform="matrix(1 0 0 1 295.865 1466)">Material</text><path d="M161 1578 680.961 1578" stroke="#000000" stroke-width="2.29167" stroke-miterlimit="8" fill="#FFEFCB" fill-rule="evenodd"/><path d="M161 1628 680.961 1628" stroke="#000000" stroke-width="2.29167" stroke-miterlimit="8" fill="#FFEFCB" fill-rule="evenodd"/><path d="M158 1805.1C158 1786.82 172.818 1772 191.096 1772L644.904 1772C663.182 1772 678 1786.82 678 1805.1L678 2033.9C678 2052.18 663.182 2067 644.904 2067L191.096 2067C172.818 2067 158 2052.18 158 2033.9Z" stroke="#000000" stroke-width="2.29167" stroke-miterlimit="8" fill="#FFEFCB" fill-rule="evenodd"/><text font-family="Calibri,Calibri_MSFontService,sans-serif" font-weight="400" font-size="73" transform="matrix(1 0 0 1 267.36 1848)">Geometry</text><path d="M158 1960 677.961 1960" stroke="#000000" stroke-width="2.29167" stroke-miterlimit="8" fill="#FFEFCB" fill-rule="evenodd"/><path d="M158 2010 677.961 2010" stroke="#000000" stroke-width="2.29167" stroke-miterlimit="8" fill="#FFEFCB" fill-rule="evenodd"/><path d="M766 1422.98C766 1404.77 780.767 1390 798.984 1390L1253.02 1390C1271.23 1390 1286 1404.77 1286 1422.98L1286 1651.02C1286 1669.23 1271.23 1684 1253.02 1684L798.984 1684C780.767 1684 766 1669.23 766 1651.02Z" stroke="#000000" stroke-width="2.29167" stroke-miterlimit="8" fill="#FFEFCB" fill-rule="evenodd"/><text font-family="Calibri,Calibri_MSFontService,sans-serif" font-weight="400" font-size="73" transform="matrix(1 0 0 1 948.289 1466)">Form</text><path d="M766 1578 1285.96 1578" stroke="#000000" stroke-width="2.29167" stroke-miterlimit="8" fill="#FFEFCB" fill-rule="evenodd"/><path d="M766 1628 1285.96 1628" stroke="#000000" stroke-width="2.29167" stroke-miterlimit="8" fill="#FFEFCB" fill-rule="evenodd"/><path d="M1369 1039.98C1369 1021.77 1383.77 1007 1401.98 1007L1856.02 1007C1874.23 1007 1889 1021.77 1889 1039.98L1889 1268.02C1889 1286.23 1874.23 1301 1856.02 1301L1401.98 1301C1383.77 1301 1369 1286.23 1369 1268.02Z" stroke="#000000" stroke-width="2.29167" stroke-miterlimit="8" fill="#FFEFCB" fill-rule="evenodd"/><text font-family="Calibri,Calibri_MSFontService,sans-serif" font-weight="400" font-size="73" transform="matrix(1 0 0 1 1518.63 1083)">Artifact</text><path d="M1369 1195 1888.96 1195" stroke="#000000" stroke-width="2.29167" stroke-miterlimit="8" fill="#FFEFCB" fill-rule="evenodd"/><path d="M1369 1245 1888.96 1245" stroke="#000000" stroke-width="2.29167" stroke-miterlimit="8" fill="#FFEFCB" fill-rule="evenodd"/><path d="M421 912 421 1006.76" stroke="#000000" stroke-width="2.29167" stroke-miterlimit="8" fill="none" fill-rule="evenodd"/><path d="M0 0 83.8371 0.000360892" stroke="#000000" stroke-width="2.29167" stroke-miterlimit="8" fill="none" fill-rule="evenodd" transform="matrix(-1 0 0 1 764.837 1154)"/><path d="M0 0 0.000360892 94.761" stroke="#000000" stroke-width="2.29167" stroke-miterlimit="8" fill="none" fill-rule="evenodd" transform="matrix(1 0 0 -1 1025 1006.76)"/><path d="M1025 1006.76 1025 959.38 1628.8 959.38 1628.8 912" stroke="#000000" stroke-width="2.29167" stroke-miterlimit="8" fill="none" fill-rule="evenodd"/><path d="M1025 1006.76 1025 981.914 2232.6 981.914 2232.6 912" stroke="#000000" stroke-width="2.29167" stroke-miterlimit="8" fill="none" fill-rule="evenodd"/><path d="M1285 1154 1368.84 1154" stroke="#000000" stroke-width="2.29167" stroke-miterlimit="8" fill="none" fill-rule="evenodd"/><path d="M0 0 84.8527 0.000360892" stroke="#000000" stroke-width="2.29167" stroke-miterlimit="8" fill="none" fill-rule="evenodd" transform="matrix(-1 0 0 1 765.853 1537)"/><path d="M1026.02 1389.57 1025 1301" stroke="#000000" stroke-width="2.29167" stroke-miterlimit="8" fill="none" fill-rule="evenodd"/><path d="M0 0 44.2868 0 44.2868 382.302 88.5731 382.302" stroke="#000000" stroke-width="2.29167" stroke-miterlimit="8" fill="none" fill-rule="evenodd" transform="matrix(1 0 0 -1 678 1919.3)"/><path d="M1368 1422.98C1368 1404.77 1382.77 1390 1400.98 1390L1855.02 1390C1873.23 1390 1888 1404.77 1888 1422.98L1888 1651.02C1888 1669.23 1873.23 1684 1855.02 1684L1400.98 1684C1382.77 1684 1368 1669.23 1368 1651.02Z" stroke="#000000" stroke-width="2.29167" stroke-miterlimit="8" fill="#FFEFCB" fill-rule="evenodd"/><text font-family="Calibri,Calibri_MSFontService,sans-serif" font-weight="400" font-size="73" transform="matrix(1 0 0 1 1514.26 1466)">Feature</text><path d="M1368 1578 1887.96 1578" stroke="#000000" stroke-width="2.29167" stroke-miterlimit="8" fill="#FFEFCB" fill-rule="evenodd"/><path d="M1368 1628 1887.96 1628" stroke="#000000" stroke-width="2.29167" stroke-miterlimit="8" fill="#FFEFCB" fill-rule="evenodd"/><path d="M1369 1805.1C1369 1786.82 1383.82 1772 1402.1 1772L1855.9 1772C1874.18 1772 1889 1786.82 1889 1805.1L1889 2033.9C1889 2052.18 1874.18 2067 1855.9 2067L1402.1 2067C1383.82 2067 1369 2052.18 1369 2033.9Z" stroke="#000000" stroke-width="2.29167" stroke-miterlimit="8" fill="#FEDF98" fill-rule="evenodd"/><text font-family="Calibri,Calibri_MSFontService,sans-serif" font-weight="400" font-size="73" transform="matrix(1 0 0 1 1430.31 1848)">OAM Feature</text><path d="M1369 1960 1888.96 1960" stroke="#000000" stroke-width="2.29167" stroke-miterlimit="8" fill="#FEDF98" fill-rule="evenodd"/><path d="M1369 2010 1888.96 2010" stroke="#000000" stroke-width="2.29167" stroke-miterlimit="8" fill="#FEDF98" fill-rule="evenodd"/><path d="M1973 1422.98C1973 1404.77 1987.77 1390 2005.98 1390L2460.02 1390C2478.23 1390 2493 1404.77 2493 1422.98L2493 1651.02C2493 1669.23 2478.23 1684 2460.02 1684L2005.98 1684C1987.77 1684 1973 1669.23 1973 1651.02Z" stroke="#000000" stroke-width="2.29167" stroke-miterlimit="8" fill="#FEDF98" fill-rule="evenodd"/><text font-family="Calibri,Calibri_MSFontService,sans-serif" font-weight="400" font-size="73" transform="matrix(1 0 0 1 2172.06 1466)">Part</text><path d="M1973 1578 2492.96 1578" stroke="#000000" stroke-width="2.29167" stroke-miterlimit="8" fill="#FEDF98" fill-rule="evenodd"/><path d="M1973 1628 2492.96 1628" stroke="#000000" stroke-width="2.29167" stroke-miterlimit="8" fill="#FEDF98" fill-rule="evenodd"/><path d="M1973 1805.1C1973 1786.82 1987.82 1772 2006.1 1772L2459.9 1772C2478.18 1772 2493 1786.82 2493 1805.1L2493 2033.9C2493 2052.18 2478.18 2067 2459.9 2067L2006.1 2067C1987.82 2067 1973 2052.18 1973 2033.9Z" stroke="#000000" stroke-width="2.29167" stroke-miterlimit="8" fill="#FEDF98" fill-rule="evenodd"/><text font-family="Calibri,Calibri_MSFontService,sans-serif" font-weight="400" font-size="73" transform="matrix(1 0 0 1 2091.35 1848)">Assembly</text><path d="M1973 1960 2492.96 1960" stroke="#000000" stroke-width="2.29167" stroke-miterlimit="8" fill="#FEDF98" fill-rule="evenodd"/><path d="M1973 2010 2492.96 2010" stroke="#000000" stroke-width="2.29167" stroke-miterlimit="8" fill="#FEDF98" fill-rule="evenodd"/><path d="M0 0 41.9188 0 41.9188 382.302 83.8371 382.302" stroke="#000000" stroke-width="2.29167" stroke-miterlimit="8" fill="none" fill-rule="evenodd" transform="matrix(-1 1.22465e-16 1.22465e-16 1 1972.84 1537)"/><path d="M1889 1920 1972.84 1920" stroke="#000000" stroke-width="2.29167" stroke-miterlimit="8" fill="none" fill-rule="evenodd"/><path d="M1286 1535 1368.11 1535" stroke="#000000" stroke-width="2.29167" stroke-miterlimit="8" fill="none" fill-rule="evenodd"/><path d="M1628 1684 1628.72 1771.87" stroke="#000000" stroke-width="2.29167" stroke-miterlimit="8" fill="none" fill-rule="evenodd"/><path d="M0 0 0.717093 88.568" stroke="#000000" stroke-width="2.29167" stroke-miterlimit="8" fill="none" fill-rule="evenodd" transform="matrix(-1 0 0 1 1628.72 1301)"/><path d="M0 0 59.3068 0 59.3068 603.082 88.568 603.082" stroke="#000000" stroke-width="2.29167" stroke-miterlimit="8" fill="none" fill-rule="evenodd" transform="matrix(1.83697e-16 1 1 -1.83697e-16 1025 1301)"/><path d="M3171 1039.98C3171 1021.77 3185.77 1007 3203.98 1007L3658.02 1007C3676.23 1007 3691 1021.77 3691 1039.98L3691 1268.02C3691 1286.23 3676.23 1301 3658.02 1301L3203.98 1301C3185.77 1301 3171 1286.23 3171 1268.02Z" stroke="#000000" stroke-width="2.29167" stroke-miterlimit="8" fill="#E0DAEB" fill-rule="evenodd"/><text font-family="Calibri,Calibri_MSFontService,sans-serif" font-weight="400" font-size="73" transform="matrix(1 0 0 1 3214.39 1083)">Env</text><text font-family="Calibri,Calibri_MSFontService,sans-serif" font-weight="400" font-size="73" transform="matrix(1 0 0 1 3320.89 1083)">ironmenta</text><text font-family="Calibri,Calibri_MSFontService,sans-serif" font-weight="400" font-size="73" transform="matrix(1 0 0 1 3630.93 1083)">l</text><text font-family="Calibri,Calibri_MSFontService,sans-serif" font-weight="400" font-size="73" transform="matrix(1 0 0 1 3346.87 1162)">Effect</text><path d="M3171 1195 3690.96 1195" stroke="#000000" stroke-width="2.29167" stroke-miterlimit="8" fill="#E0DAEB" fill-rule="evenodd"/><path d="M3171 1245 3690.96 1245" stroke="#000000" stroke-width="2.29167" stroke-miterlimit="8" fill="#E0DAEB" fill-rule="evenodd"/><path d="M2572 1041.98C2572 1023.77 2586.77 1009 2604.98 1009L3059.02 1009C3077.23 1009 3092 1023.77 3092 1041.98L3092 1270.02C3092 1288.23 3077.23 1303 3059.02 1303L2604.98 1303C2586.77 1303 2572 1288.23 2572 1270.02Z" stroke="#000000" stroke-width="2.29167" stroke-miterlimit="8" fill="#E0DAEB" fill-rule="evenodd"/><text font-family="Calibri,Calibri_MSFontService,sans-serif" font-weight="400" font-size="73" transform="matrix(1 0 0 1 2699.43 1085)">Indicator</text><text font-family="Calibri,Calibri_MSFontService,sans-serif" font-weight="400" font-size="73" transform="matrix(1 0 0 1 2725.71 1164)">Res</text><text font-family="Calibri,Calibri_MSFontService,sans-serif" font-weight="400" font-size="73" transform="matrix(1 0 0 1 2829.85 1164)">ults</text><path d="M2572 1196 3091.96 1196" stroke="#000000" stroke-width="2.29167" stroke-miterlimit="8" fill="#E0DAEB" fill-rule="evenodd"/><path d="M2572 1246 3091.96 1246" stroke="#000000" stroke-width="2.29167" stroke-miterlimit="8" fill="#E0DAEB" fill-rule="evenodd"/><path d="M2572 644.096C2572 625.817 2586.82 611 2605.1 611L3058.9 611C3077.18 611 3092 625.817 3092 644.096L3092 872.904C3092 891.182 3077.18 906 3058.9 906L2605.1 906C2586.82 906 2572 891.182 2572 872.904Z" stroke="#000000" stroke-width="2.29167" stroke-miterlimit="8" fill="#CEE8F7" fill-rule="evenodd"/><text font-family="Calibri,Calibri_MSFontService,sans-serif" font-weight="400" font-size="73" transform="matrix(1 0 0 1 2615.34 687)">Env</text><text font-family="Calibri,Calibri_MSFontService,sans-serif" font-weight="400" font-size="73" transform="matrix(1 0 0 1 2721.83 687)">ironmental</text><text font-family="Calibri,Calibri_MSFontService,sans-serif" font-weight="400" font-size="73" transform="matrix(1 0 0 1 2725.02 766)">Factors</text><path d="M2572 799 3091.96 799" stroke="#000000" stroke-width="2.29167" stroke-miterlimit="8" fill="#CEE8F7" fill-rule="evenodd"/><path d="M2572 849 3091.96 849" stroke="#000000" stroke-width="2.29167" stroke-miterlimit="8" fill="#CEE8F7" fill-rule="evenodd"/><path d="M3776 644.096C3776 625.817 3790.82 611 3809.1 611L4262.9 611C4281.18 611 4296 625.817 4296 644.096L4296 872.904C4296 891.182 4281.18 906 4262.9 906L3809.1 906C3790.82 906 3776 891.182 3776 872.904Z" stroke="#000000" stroke-width="2.29167" stroke-miterlimit="8" fill="#CEE8F7" fill-rule="evenodd"/><text font-family="Calibri,Calibri_MSFontService,sans-serif" font-weight="400" font-size="73" transform="matrix(1 0 0 1 3828.88 687)">LCIA Methods</text><path d="M3776 799 4295.96 799" stroke="#000000" stroke-width="2.29167" stroke-miterlimit="8" fill="#CEE8F7" fill-rule="evenodd"/><path d="M3776 849 4295.96 849" stroke="#000000" stroke-width="2.29167" stroke-miterlimit="8" fill="#CEE8F7" fill-rule="evenodd"/><path d="M3171 644.096C3171 625.817 3185.82 611 3204.1 611L3657.9 611C3676.18 611 3691 625.817 3691 644.096L3691 872.904C3691 891.182 3676.18 906 3657.9 906L3204.1 906C3185.82 906 3171 891.182 3171 872.904Z" stroke="#000000" stroke-width="2.29167" stroke-miterlimit="8" fill="#CEE8F7" fill-rule="evenodd"/><text font-family="Calibri,Calibri_MSFontService,sans-serif" font-weight="400" font-size="73" transform="matrix(1 0 0 1 3318.3 687)">Metrics</text><path d="M3171 799 3690.96 799" stroke="#000000" stroke-width="2.29167" stroke-miterlimit="8" fill="#CEE8F7" fill-rule="evenodd"/><path d="M3171 849 3690.96 849" stroke="#000000" stroke-width="2.29167" stroke-miterlimit="8" fill="#CEE8F7" fill-rule="evenodd"/><path d="M2832 1008.94 2832 957.468 3431.06 957.468 3431.06 906" stroke="#000000" stroke-width="2.29167" stroke-miterlimit="8" fill="none" fill-rule="evenodd"/><path d="M0 0 79.0946 1.60561" stroke="#000000" stroke-width="2.29167" stroke-miterlimit="8" fill="none" fill-rule="evenodd" transform="matrix(-1 0 0 1 3171.09 1154)"/><path d="M2571.89 1155.61 1889 1154" stroke="#000000" stroke-width="2.29167" stroke-miterlimit="8" fill="none" fill-rule="evenodd"/><path d="M3691 758 3776.04 758" stroke="#000000" stroke-width="2.29167" stroke-miterlimit="8" fill="none" fill-rule="evenodd"/><path d="M4036 906 4036 1008.94" stroke="#000000" stroke-width="2.29167" stroke-miterlimit="8" fill="none" fill-rule="evenodd"/><path d="M3776 1805.1C3776 1786.82 3790.82 1772 3809.1 1772L4262.9 1772C4281.18 1772 4296 1786.82 4296 1805.1L4296 2033.9C4296 2052.18 4281.18 2067 4262.9 2067L3809.1 2067C3790.82 2067 3776 2052.18 3776 2033.9Z" stroke="#000000" stroke-width="2.29167" stroke-miterlimit="8" fill="#FCE5E7" fill-rule="evenodd"/><text font-family="Calibri,Calibri_MSFontService,sans-serif" font-weight="400" font-size="73" transform="matrix(1 0 0 1 3851.78 1848)">Consumable</text><path d="M3776 1960 4295.96 1960" stroke="#000000" stroke-width="2.29167" stroke-miterlimit="8" fill="none" fill-rule="evenodd"/><path d="M3776 2010 4295.96 2010" stroke="#000000" stroke-width="2.29167" stroke-miterlimit="8" fill="none" fill-rule="evenodd"/><path d="M3175 1805.1C3175 1786.82 3189.82 1772 3208.1 1772L3661.9 1772C3680.18 1772 3695 1786.82 3695 1805.1L3695 2033.9C3695 2052.18 3680.18 2067 3661.9 2067L3208.1 2067C3189.82 2067 3175 2052.18 3175 2033.9Z" stroke="#000000" stroke-width="2.29167" stroke-miterlimit="8" fill="#FCE5E7" fill-rule="evenodd"/><text font-family="Calibri,Calibri_MSFontService,sans-serif" font-weight="400" font-size="73" transform="matrix(1 0 0 1 3332.93 1848)">Energy</text><path d="M3175 1960 3694.96 1960" stroke="#000000" stroke-width="2.29167" stroke-miterlimit="8" fill="none" fill-rule="evenodd"/><path d="M3175 2010 3694.96 2010" stroke="#000000" stroke-width="2.29167" stroke-miterlimit="8" fill="none" fill-rule="evenodd"/><path d="M2572 1805.1C2572 1786.82 2586.82 1772 2605.1 1772L3058.9 1772C3077.18 1772 3092 1786.82 3092 1805.1L3092 2033.9C3092 2052.18 3077.18 2067 3058.9 2067L2605.1 2067C2586.82 2067 2572 2052.18 2572 2033.9Z" stroke="#000000" stroke-width="2.29167" stroke-miterlimit="8" fill="#FCE5E7" fill-rule="evenodd"/><text font-family="Calibri,Calibri_MSFontService,sans-serif" font-weight="400" font-size="73" transform="matrix(1 0 0 1 2680.56 1848)">Substanc</text><text font-family="Calibri,Calibri_MSFontService,sans-serif" font-weight="400" font-size="73" transform="matrix(1 0 0 1 2946.6 1848)">e</text><path d="M2572 1960 3091.96 1960" stroke="#000000" stroke-width="2.29167" stroke-miterlimit="8" fill="none" fill-rule="evenodd"/><path d="M2572 2010 3091.96 2010" stroke="#000000" stroke-width="2.29167" stroke-miterlimit="8" fill="none" fill-rule="evenodd"/><path d="M3435 1772.67 3435 1730.21 4036.28 1730.21 4036.28 1684" stroke="#000000" stroke-width="2.29167" stroke-miterlimit="8" fill="none" fill-rule="evenodd"/><path d="M2832 1772.67 2832 1728.33 4036.06 1728.33 4036.06 1684" stroke="#000000" stroke-width="2.29167" stroke-miterlimit="8" fill="none" fill-rule="evenodd"/><path d="M3776 1422.1C3776 1403.82 3790.82 1389 3809.1 1389L4262.9 1389C4281.18 1389 4296 1403.82 4296 1422.1L4296 1650.9C4296 1669.18 4281.18 1684 4262.9 1684L3809.1 1684C3790.82 1684 3776 1669.18 3776 1650.9Z" stroke="#000000" stroke-width="2.29167" stroke-miterlimit="8" fill="#D3E9DD" fill-rule="evenodd"/><text font-family="Calibri,Calibri_MSFontService,sans-serif" font-weight="400" font-size="73" transform="matrix(1 0 0 1 3965.08 1465)">Flow</text><path d="M3776 1577 4295.96 1577" stroke="#000000" stroke-width="2.29167" stroke-miterlimit="8" fill="#D3E9DD" fill-rule="evenodd"/><path d="M3776 1627 4295.96 1627" stroke="#000000" stroke-width="2.29167" stroke-miterlimit="8" fill="#D3E9DD" fill-rule="evenodd"/><path d="M3175 1422.1C3175 1403.82 3189.82 1389 3208.1 1389L3661.9 1389C3680.18 1389 3695 1403.82 3695 1422.1L3695 1650.9C3695 1669.18 3680.18 1684 3661.9 1684L3208.1 1684C3189.82 1684 3175 1669.18 3175 1650.9Z" stroke="#000000" stroke-width="2.29167" stroke-miterlimit="8" fill="#D3E9DD" fill-rule="evenodd"/><text font-family="Calibri,Calibri_MSFontService,sans-serif" font-weight="400" font-size="73" transform="matrix(1 0 0 1 3321.57 1465)">Process</text><path d="M3175 1577 3694.96 1577" stroke="#000000" stroke-width="2.29167" stroke-miterlimit="8" fill="#D3E9DD" fill-rule="evenodd"/><path d="M3175 1627 3694.96 1627" stroke="#000000" stroke-width="2.29167" stroke-miterlimit="8" fill="#D3E9DD" fill-rule="evenodd"/><path d="M2572 1422.1C2572 1403.82 2586.82 1389 2605.1 1389L3058.9 1389C3077.18 1389 3092 1403.82 3092 1422.1L3092 1650.9C3092 1669.18 3077.18 1684 3058.9 1684L2605.1 1684C2586.82 1684 2572 1669.18 2572 1650.9Z" stroke="#000000" stroke-width="2.29167" stroke-miterlimit="8" fill="#D3E9DD" fill-rule="evenodd"/><text font-family="Calibri,Calibri_MSFontService,sans-serif" font-weight="400" font-size="73" transform="matrix(1 0 0 1 2646.6 1465)">Process</text><text font-family="Calibri,Calibri_MSFontService,sans-serif" font-weight="400" font-size="73" transform="matrix(1 0 0 1 2889.47 1465)">Plan</text><path d="M2572 1577 3091.96 1577" stroke="#000000" stroke-width="2.29167" stroke-miterlimit="8" fill="#D3E9DD" fill-rule="evenodd"/><path d="M2572 1627 3091.96 1627" stroke="#000000" stroke-width="2.29167" stroke-miterlimit="8" fill="#D3E9DD" fill-rule="evenodd"/><path d="M4036 1303 4036 1389.17" stroke="#000000" stroke-width="2.29167" stroke-miterlimit="8" fill="none" fill-rule="evenodd"/><path d="M0 0 81.317 0.00108268" stroke="#000000" stroke-width="2.29167" stroke-miterlimit="8" fill="none" fill-rule="evenodd" transform="matrix(1 0 0 -1 3695 1536)"/><path d="M3092 1536 3174.82 1536" stroke="#000000" stroke-width="2.29167" stroke-miterlimit="8" fill="none" fill-rule="evenodd"/><path d="M0 0 43.889 0 43.889 605.007 87.7773 605.007" stroke="#000000" stroke-width="2.29167" stroke-miterlimit="8" fill="none" fill-rule="evenodd" transform="matrix(1.83697e-16 1 1 -1.83697e-16 3431 1301)"/><path d="M0 0 30.745 0 30.745 1202.85 87.7795 1202.85" stroke="#000000" stroke-width="2.29167" stroke-miterlimit="8" fill="none" fill-rule="evenodd" transform="matrix(1.83697e-16 1 1 -1.83697e-16 1629 1301)"/><path d="M2233 1684.79 2233 1712.95 3434.84 1712.95 3434.84 1684" stroke="#000000" stroke-width="2.29167" stroke-miterlimit="8" fill="none" fill-rule="evenodd"/><path d="M0 0 79.0946 0.000360892" stroke="#000000" stroke-width="2.29167" stroke-miterlimit="8" fill="none" fill-rule="evenodd" transform="matrix(-1 0 0 1 3171.09 758)"/><path d="M3776 1041.98C3776 1023.77 3790.77 1009 3808.98 1009L4263.02 1009C4281.23 1009 4296 1023.77 4296 1041.98L4296 1270.02C4296 1288.23 4281.23 1303 4263.02 1303L3808.98 1303C3790.77 1303 3776 1288.23 3776 1270.02Z" stroke="#000000" stroke-width="2.29167" stroke-miterlimit="8" fill="#F2F2F2" fill-rule="evenodd"/><text font-family="Calibri,Calibri_MSFontService,sans-serif" font-weight="400" font-size="73" transform="matrix(1 0 0 1 3857.15 1085)">Data </text><text font-family="Calibri,Calibri_MSFontService,sans-serif" font-weight="400" font-size="73" transform="matrix(1 0 0 1 4011.98 1085)">quality</text><path d="M3776 1196 4295.96 1196" stroke="#000000" stroke-width="2.29167" stroke-miterlimit="8" fill="none" fill-rule="evenodd"/><path d="M3776 1246 4295.96 1246" stroke="#000000" stroke-width="2.29167" stroke-miterlimit="8" fill="none" fill-rule="evenodd"/><path d="M4036 1684 4036 1772.66" stroke="#000000" stroke-width="2.29167" stroke-miterlimit="8" fill="none" fill-rule="evenodd"/></g></svg>